<svg xmlns="http://www.w3.org/2000/svg" xmlns:xlink="http://www.w3.org/1999/xlink" width="974" height="636" viewBox="0 0 974 636">
  <defs>
    <clipPath id="clip-iPhone_12_Pro_Max_3">
      <rect width="974" height="636"/>
    </clipPath>
  </defs>
  <g id="iPhone_12_Pro_Max_3" data-name="iPhone 12 Pro Max – 3" clip-path="url(#clip-iPhone_12_Pro_Max_3)">
    <rect width="974" height="636" fill="#ffe9e9"/>
    <path id="路径_3" data-name="路径 3" d="M240.549-39.258l17.529,21.484V-39.258h7.08V-4.492H259.25l-17.578-21.68v21.68h-6.982V-39.258ZM307.1-19.043H291.574v8.838h17.92v6.152H284.006v-35.5h24.951v6.1H291.574v8.35H307.1Zm41.66-18.7,8.887,21.533,4.98-23.047h6.641l-8.3,34.766h-6.152l-8.984-20.85-8.594,20.85h-6.1L322.15-39.258h7.129l5.664,23.047,8.3-21.533Zm92.773,0,8.887,21.533,4.98-23.047h6.641l-8.3,34.766H447.59l-8.984-20.85-8.594,20.85h-6.1l-8.984-34.766h7.129l5.664,23.047,8.3-21.533Zm30.842,15.869a18.956,18.956,0,0,1,2.344-9.57A16.654,16.654,0,0,1,477.5-35.01a16.57,16.57,0,0,1,3.564-2.637l.1-.049a19.272,19.272,0,0,1,9.082-2.148,19.375,19.375,0,0,1,9.131,2.148,15.306,15.306,0,0,1,3.662,2.661,17.02,17.02,0,0,1,2.734,3.491l.049.1a18.648,18.648,0,0,1,2.393,9.57,18.648,18.648,0,0,1-2.393,9.57,16.654,16.654,0,0,1-2.783,3.564A16.57,16.57,0,0,1,499.477-6.1l-.1.049a19.375,19.375,0,0,1-9.131,2.148,19.272,19.272,0,0,1-9.082-2.148A15.306,15.306,0,0,1,477.5-8.716a17.02,17.02,0,0,1-2.734-3.491l-.049-.1A18.956,18.956,0,0,1,472.377-21.875Zm6.543,0a15.032,15.032,0,0,0,.439,3.125,11.219,11.219,0,0,0,1.611,3.857,10.5,10.5,0,0,0,3.467,3.271,10.59,10.59,0,0,0,5.811,1.416,10.692,10.692,0,0,0,5.859-1.416,10.5,10.5,0,0,0,3.467-3.271,12.046,12.046,0,0,0,1.66-3.857,15.032,15.032,0,0,0,.439-3.125,15.143,15.143,0,0,0-.439-3.174,11.228,11.228,0,0,0-1.587-3.833,10.813,10.813,0,0,0-3.442-3.3,11.366,11.366,0,0,0-5.957-1.367,11.259,11.259,0,0,0-5.908,1.367,11.251,11.251,0,0,0-3.418,3.3,10.98,10.98,0,0,0-1.611,3.833A16.934,16.934,0,0,0,478.92-21.875Zm70.9,17.383-8.252-.049-6.934-12.5h-6.348V-4.492H521.4V-39.258h13.037a17.539,17.539,0,0,1,7.178,1.367,10.659,10.659,0,0,1,4.736,3.906,10.464,10.464,0,0,1,1.66,5.859,10.017,10.017,0,0,1-1.709,5.811,10.665,10.665,0,0,1-4.785,3.857ZM528.285-33.4v10.547h5.664a11.839,11.839,0,0,0,2.881-.342,7.7,7.7,0,0,0,2.344-.977,4.52,4.52,0,0,0,1.538-1.66,4.871,4.871,0,0,0,.513-2.295,4.4,4.4,0,0,0-2-4,7.933,7.933,0,0,0-2.368-.952,12.614,12.614,0,0,0-2.905-.317Zm33.154-5.859h6.885v28.613h17.822v6.152H561.439Zm51.66-1.123a21.638,21.638,0,0,1,9.814,2.2,16.157,16.157,0,0,1,3.931,2.686,16.988,16.988,0,0,1,2.954,3.613l.049.049a18.884,18.884,0,0,1,2.539,9.961,18.981,18.981,0,0,1-2.539,10.01,17,17,0,0,1-2.954,3.687,16.53,16.53,0,0,1-3.833,2.71h-.1A21.356,21.356,0,0,1,613.1-3.223H600.746V-40.381Zm-.83,30.859a16.072,16.072,0,0,0,5.591-.806,10.484,10.484,0,0,0,3.735-2.417,9.572,9.572,0,0,0,2.393-3.857,16.34,16.34,0,0,0,.781-5.273q0-5.811-3.174-9.033a10.585,10.585,0,0,0-3.687-2.417,16,16,0,0,0-5.64-.806h-4V-9.521ZM240.549,20.742l17.529,21.484V20.742h7.08V55.508H259.25l-17.578-21.68v21.68h-6.982V20.742ZM307.1,40.957H291.574v8.838h17.92v6.152H284.006v-35.5h24.951v6.1H291.574V34.9H307.1Zm41.66-18.7,8.887,21.533,4.98-23.047h6.641l-8.3,34.766h-6.152l-8.984-20.85-8.594,20.85h-6.1L322.15,20.742h7.129l5.664,23.047,8.3-21.533Zm77.393-2.637a21.638,21.638,0,0,1,9.814,2.2A16.155,16.155,0,0,1,439.9,24.5a16.988,16.988,0,0,1,2.954,3.613l.049.049a18.885,18.885,0,0,1,2.539,9.961,18.982,18.982,0,0,1-2.539,10.01,17,17,0,0,1-2.954,3.687,16.53,16.53,0,0,1-3.833,2.71h-.1a21.357,21.357,0,0,1-9.863,2.246H413.8V19.619Zm-.83,30.859a16.072,16.072,0,0,0,5.591-.806,10.484,10.484,0,0,0,3.735-2.417,9.571,9.571,0,0,0,2.393-3.857,16.342,16.342,0,0,0,.781-5.273q0-5.811-3.174-9.033a10.584,10.584,0,0,0-3.687-2.417,16,16,0,0,0-5.64-.806h-4V50.479Zm63.916,5.029-8.252-.049-6.934-12.5h-6.348V55.508h-6.885V20.742h13.037a17.539,17.539,0,0,1,7.178,1.367,10.659,10.659,0,0,1,4.736,3.906,10.464,10.464,0,0,1,1.66,5.859,10.017,10.017,0,0,1-1.709,5.811,10.665,10.665,0,0,1-4.785,3.857ZM467.707,26.6V37.148h5.664a11.839,11.839,0,0,0,2.881-.342,7.7,7.7,0,0,0,2.344-.977,4.52,4.52,0,0,0,1.538-1.66,4.871,4.871,0,0,0,.513-2.295,4.4,4.4,0,0,0-2-4,7.933,7.933,0,0,0-2.368-.952,12.614,12.614,0,0,0-2.905-.317ZM530.7,40.957H515.168v8.838h17.92v6.152H507.6v-35.5h24.951v6.1H515.168V34.9H530.7Zm38.48-21,13.379,36.475h-8.105l-2.441-8.105H560.582l-2.539,8.105h-7.617l12.207-36.475Zm.732,22.168L565.953,28.8l-3.369,13.33Zm59.814-21.387h5.713V55.508h-7.08V33.779L619.273,46.23h-3.76l-9.131-12.549V55.508h-7.031V20.742h5.957l12.256,17.676ZM23.734,79.961l13.379,36.475H29.008l-2.441-8.105H15.141L12.6,116.436H4.984L17.191,79.961Zm.732,22.168L20.512,88.8l-3.369,13.33ZM51.42,80.742H58.3v28.613H76.127v6.152H51.42Zm35.547,0h6.885v28.613h17.822v6.152H86.967Zm60.4,30.371,4.053-5.078a14.582,14.582,0,0,0,4.419,2.588,13.232,13.232,0,0,0,4.663.977,7.032,7.032,0,0,0,3.809-.952,2.907,2.907,0,0,0,1.514-2.563,3.105,3.105,0,0,0-1.831-2.783,40.456,40.456,0,0,0-4.028-1.953l-4.3-1.9a17.4,17.4,0,0,1-4.883-2.954q-2.2-1.88-2.295-6.372a8.283,8.283,0,0,1,.977-4,9.133,9.133,0,0,1,2.637-3.174,12.832,12.832,0,0,1,4.053-2.051,16.641,16.641,0,0,1,5.078-.732,19.25,19.25,0,0,1,5.981.977,13.417,13.417,0,0,1,5.3,3.223l-3.467,4.883a12.77,12.77,0,0,0-3.613-1.9,13.87,13.87,0,0,0-4.2-.732,8.4,8.4,0,0,0-3.516.732,2.507,2.507,0,0,0-1.611,2.441,2.845,2.845,0,0,0,1.978,2.612q1.978.9,4.272,1.782l4.346,1.758a11.528,11.528,0,0,1,4.907,3.467,9.2,9.2,0,0,1,1.733,5.859,10.22,10.22,0,0,1-2.466,6.689,11.784,11.784,0,0,1-7.251,3.857,14.453,14.453,0,0,1-1.562.22q-.83.073-1.709.073h-.049a19.855,19.855,0,0,1-6.836-1.245A17.907,17.907,0,0,1,147.367,111.113ZM185.16,81.084h27.979v6.1h-10.5v27.979h-6.982V87.188h-10.5Zm57.256-1.123,13.379,36.475h-8.105l-2.441-8.105H233.822l-2.539,8.105h-7.617l12.207-36.475Zm.732,22.168L239.193,88.8l-3.369,13.33ZM299.3,115.508l-8.252-.049-6.934-12.5h-6.348v12.549h-6.885V80.742H283.92a17.539,17.539,0,0,1,7.178,1.367,10.658,10.658,0,0,1,4.736,3.906,10.464,10.464,0,0,1,1.66,5.859,10.017,10.017,0,0,1-1.709,5.811A10.665,10.665,0,0,1,291,101.543ZM277.768,86.6V97.148h5.664a11.839,11.839,0,0,0,2.881-.342,7.7,7.7,0,0,0,2.344-.977,4.52,4.52,0,0,0,1.538-1.66,4.871,4.871,0,0,0,.513-2.295,4.395,4.395,0,0,0-2-4,7.932,7.932,0,0,0-2.368-.952,12.614,12.614,0,0,0-2.905-.317Zm34.277-5.518h27.979v6.1h-10.5v27.979h-6.982V87.188h-10.5ZM404.3,79.961l13.379,36.475h-8.105l-2.441-8.105H395.707l-2.539,8.105h-7.617l12.207-36.475Zm.732,22.168L401.078,88.8l-3.369,13.33Zm28.076-21.045h27.979v6.1h-10.5v27.979h-6.982V87.188h-10.5Zm72.07-.342,17.529,21.484V80.742h7.08v34.766h-5.908L506.3,93.828v21.68H499.32V80.742Zm38.281,17.383a18.956,18.956,0,0,1,2.344-9.57,16.577,16.577,0,0,1,6.348-6.2l.1-.049a20.374,20.374,0,0,1,18.213,0,15.306,15.306,0,0,1,3.662,2.661,17.022,17.022,0,0,1,2.734,3.491l.049.1a20.337,20.337,0,0,1,0,19.141,16.577,16.577,0,0,1-6.348,6.2l-.1.049a20.374,20.374,0,0,1-18.213,0,15.306,15.306,0,0,1-3.662-2.661,17.022,17.022,0,0,1-2.734-3.491l-.049-.1A18.956,18.956,0,0,1,543.461,98.125Zm6.543,0a15.032,15.032,0,0,0,.439,3.125,11.222,11.222,0,0,0,1.611,3.857,10.508,10.508,0,0,0,9.277,4.688,10.692,10.692,0,0,0,5.859-1.416,10.5,10.5,0,0,0,3.467-3.271,12.047,12.047,0,0,0,1.66-3.857,15.032,15.032,0,0,0,.439-3.125,15.143,15.143,0,0,0-.439-3.174,11.228,11.228,0,0,0-1.587-3.833,10.814,10.814,0,0,0-3.442-3.3,13.555,13.555,0,0,0-11.865,0,11.25,11.25,0,0,0-3.418,3.3,10.982,10.982,0,0,0-1.611,3.833A16.929,16.929,0,0,0,550,98.125ZM616.2,82.256l8.887,21.533,4.98-23.047h6.641l-8.3,34.766h-6.152l-8.984-20.85-8.594,20.85h-6.1l-8.984-34.766h7.129l5.664,23.047,8.3-21.533Z" transform="translate(260 279.973)" fill="red"/>
  </g>
</svg>
