<svg xmlns="http://www.w3.org/2000/svg" xmlns:xlink="http://www.w3.org/1999/xlink" width="1920" height="1080" viewBox="0 0 1920 1080">
  <defs>
    <clipPath id="clip-path">
      <rect id="矩形_814" data-name="矩形 814" width="1920" height="1080" transform="translate(99)" fill="#fff"/>
    </clipPath>
    <filter id="路径_757" x="-296.33" y="1014.063" width="1672.999" height="1194.729" filterUnits="userSpaceOnUse">
      <feOffset dy="12" input="SourceAlpha"/>
      <feGaussianBlur result="blur"/>
      <feFlood flood-color="#fff"/>
      <feComposite operator="in" in2="blur"/>
      <feComposite in="SourceGraphic"/>
    </filter>
    <filter id="路径_758" x="-330.073" y="931.804" width="1673.042" height="1235.318" filterUnits="userSpaceOnUse">
      <feOffset dy="12" input="SourceAlpha"/>
      <feGaussianBlur result="blur-2"/>
      <feFlood flood-color="#fff"/>
      <feComposite operator="in" in2="blur-2"/>
      <feComposite in="SourceGraphic"/>
    </filter>
    <filter id="路径_759" x="-385.278" y="844.656" width="1671.046" height="1274.422" filterUnits="userSpaceOnUse">
      <feOffset dy="12" input="SourceAlpha"/>
      <feGaussianBlur result="blur-3"/>
      <feFlood flood-color="#fff"/>
      <feComposite operator="in" in2="blur-3"/>
      <feComposite in="SourceGraphic"/>
    </filter>
    <filter id="路径_760" x="-445.086" y="747.007" width="1667.013" height="1311.996" filterUnits="userSpaceOnUse">
      <feOffset dy="12" input="SourceAlpha"/>
      <feGaussianBlur result="blur-4"/>
      <feFlood flood-color="#fff"/>
      <feComposite operator="in" in2="blur-4"/>
      <feComposite in="SourceGraphic"/>
    </filter>
    <filter id="路径_761" x="-492.636" y="685.788" width="1660.945" height="1347.995" filterUnits="userSpaceOnUse">
      <feOffset dy="12" input="SourceAlpha"/>
      <feGaussianBlur result="blur-5"/>
      <feFlood flood-color="#fff"/>
      <feComposite operator="in" in2="blur-5"/>
      <feComposite in="SourceGraphic"/>
    </filter>
    <filter id="路径_762" x="-572.895" y="615.401" width="1652.851" height="1382.374" filterUnits="userSpaceOnUse">
      <feOffset dy="12" input="SourceAlpha"/>
      <feGaussianBlur result="blur-6"/>
      <feFlood flood-color="#fff"/>
      <feComposite operator="in" in2="blur-6"/>
      <feComposite in="SourceGraphic"/>
    </filter>
    <filter id="路径_763" x="-649.161" y="550.989" width="1642.739" height="1415.093" filterUnits="userSpaceOnUse">
      <feOffset dy="12" input="SourceAlpha"/>
      <feGaussianBlur result="blur-7"/>
      <feFlood flood-color="#fff"/>
      <feComposite operator="in" in2="blur-7"/>
      <feComposite in="SourceGraphic"/>
    </filter>
    <filter id="路径_764" x="-753.321" y="495.25" width="1630.62" height="1446.11" filterUnits="userSpaceOnUse">
      <feOffset dy="12" input="SourceAlpha"/>
      <feGaussianBlur result="blur-8"/>
      <feFlood flood-color="#fff"/>
      <feComposite operator="in" in2="blur-8"/>
      <feComposite in="SourceGraphic"/>
    </filter>
    <filter id="路径_765" x="-846.981" y="448.708" width="1616.508" height="1475.389" filterUnits="userSpaceOnUse">
      <feOffset dy="12" input="SourceAlpha"/>
      <feGaussianBlur result="blur-9"/>
      <feFlood flood-color="#fff"/>
      <feComposite operator="in" in2="blur-9"/>
      <feComposite in="SourceGraphic"/>
    </filter>
    <filter id="路径_766" x="-938.364" y="406.539" width="1600.42" height="1502.895" filterUnits="userSpaceOnUse">
      <feOffset dy="12" input="SourceAlpha"/>
      <feGaussianBlur result="blur-10"/>
      <feFlood flood-color="#fff"/>
      <feComposite operator="in" in2="blur-10"/>
      <feComposite in="SourceGraphic"/>
    </filter>
    <filter id="路径_767" x="-1055.133" y="390.853" width="1582.375" height="1528.594" filterUnits="userSpaceOnUse">
      <feOffset dy="12" input="SourceAlpha"/>
      <feGaussianBlur result="blur-11"/>
      <feFlood flood-color="#fff"/>
      <feComposite operator="in" in2="blur-11"/>
      <feComposite in="SourceGraphic"/>
    </filter>
    <filter id="路径_768" x="-1153.958" y="367" width="1562.394" height="1552.454" filterUnits="userSpaceOnUse">
      <feOffset dy="12" input="SourceAlpha"/>
      <feGaussianBlur result="blur-12"/>
      <feFlood flood-color="#fff"/>
      <feComposite operator="in" in2="blur-12"/>
      <feComposite in="SourceGraphic"/>
    </filter>
    <clipPath id="clip-Web_1920_14">
      <rect width="1920" height="1080"/>
    </clipPath>
  </defs>
  <g id="Web_1920_14" data-name="Web 1920 – 14" clip-path="url(#clip-Web_1920_14)">
    <rect width="1920" height="1080" fill="#fff"/>
    <rect id="矩形_823" data-name="矩形 823" width="1920" height="1080" fill="#fffef9"/>
    <g id="蒙版组_1" data-name="蒙版组 1" transform="translate(-99)" clip-path="url(#clip-path)">
      <g id="组_810" data-name="组 810" transform="translate(-1054.167 366.2)">
        <g transform="matrix(1, 0, 0, 1, 1153.17, -366.2)" filter="url(#路径_757)">
          <g id="路径_757-2" data-name="路径 757" transform="translate(1376.67 1619.72) rotate(158)" fill="none">
            <path d="M770.488,0c425.388-.333,770.119,145.627,769.978,326.01s-345.1,326.882-770.488,327.215S-.141,507.6,0,327.215,345.1.333,770.488,0Z" stroke="none"/>
            <path d="M 771.9393310546875 1.99993896484375 C 771.4727172851562 1.99993896484375 770.9569091796875 2.0001220703125 770.4899291992188 2.00048828125 C 718.2879638671875 2.04132080078125 666.117919921875 4.3121337890625 615.4287109375 8.74993896484375 C 566.0321655273438 13.07452392578125 517.4437255859375 19.50750732421875 471.0133056640625 27.8701171875 C 425.4337158203125 36.0797119140625 381.472900390625 46.2301025390625 340.3521728515625 58.0399169921875 C 299.6357421875 69.7335205078125 261.3499755859375 83.154541015625 226.558349609375 97.929931640625 C 191.78955078125 112.6957397460938 160.2279052734375 128.9341430664062 132.7501220703125 146.1939086914062 C 118.973876953125 154.8473205566406 106.042724609375 163.8783264160156 94.3155517578125 173.0361022949219 C 82.515380859375 182.2509155273438 71.65771484375 191.8101196289062 62.044189453125 201.4481201171875 C 52.3531494140625 211.1637268066406 43.6971435546875 221.1895141601562 36.3162841796875 231.2469177246094 C 28.8641357421875 241.4019165039062 22.5335693359375 251.8327026367188 17.50048828125 262.2493286132812 C 12.41015625 272.7851257324219 8.52294921875 283.5635070800781 5.9473876953125 294.2851257324219 C 3.3365478515625 305.1527099609375 2.008544921875 316.2325134277344 1.9998779296875 327.2169189453125 C 1.9913330078125 338.1891174316406 3.2991943359375 349.2547302246094 5.88671875 360.1061096191406 C 8.439697265625 370.8119201660156 12.3009033203125 381.572509765625 17.3631591796875 392.0889282226562 C 22.3682861328125 402.4865112304688 28.66796875 412.8963012695312 36.0872802734375 423.0291137695312 C 43.435546875 433.0649108886719 52.056396484375 443.0671081542969 61.7103271484375 452.7585144042969 C 71.28759765625 462.3724975585938 82.1060791015625 471.9061279296875 93.8660888671875 481.0947265625 C 105.5533447265625 490.2265014648438 118.4425048828125 499.2303161621094 132.1759033203125 507.8563232421875 C 159.5675048828125 525.0609130859375 191.0379638671875 541.2415161132812 225.712890625 555.94873046875 C 260.4097900390625 570.6649169921875 298.5987548828125 584.026123046875 339.2191162109375 595.6611328125 C 380.24072265625 607.410888671875 424.103515625 617.5029296875 469.58935546875 625.65673828125 C 515.9207763671875 633.9619140625 564.41455078125 640.3406982421875 613.7237548828125 644.6155395507812 C 664.3191528320312 649.0018920898438 716.4025268554688 651.2258911132812 768.52734375 651.2258911132812 C 768.9939575195312 651.2258911132812 769.509765625 651.2257080078125 769.9767456054688 651.225341796875 C 822.1787109375 651.1845092773438 874.3487548828125 648.9136962890625 925.0379638671875 644.4758911132812 C 974.4345092773438 640.1513061523438 1023.02294921875 633.7183227539062 1069.453369140625 625.355712890625 C 1115.032958984375 617.1461181640625 1158.993774414062 606.9957275390625 1200.114501953125 595.1859130859375 C 1240.830932617188 583.4923095703125 1279.11669921875 570.0712890625 1313.908325195312 555.2958984375 C 1348.677124023438 540.5300903320312 1380.23876953125 524.291748046875 1407.716552734375 507.0319213867188 C 1421.49267578125 498.3785095214844 1434.423950195312 489.3475341796875 1446.151123046875 480.189697265625 C 1457.951293945312 470.9749145507812 1468.808959960938 461.4157104492188 1478.422485351562 451.7777099609375 C 1488.113525390625 442.0621337890625 1496.76953125 432.0363159179688 1504.150390625 421.9789123535156 C 1511.6025390625 411.8239135742188 1517.93310546875 401.3931274414062 1522.966186523438 390.9765014648438 C 1528.056518554688 380.4407043457031 1531.943725585938 369.6623229980469 1534.519287109375 358.9407043457031 C 1537.130126953125 348.0731201171875 1538.458129882812 336.9933166503906 1538.466796875 326.0089111328125 C 1538.475341796875 315.0367126464844 1537.16748046875 303.9710998535156 1534.579956054688 293.1197204589844 C 1532.026977539062 282.4139099121094 1528.165771484375 271.6533203125 1523.103515625 261.1369018554688 C 1518.098388671875 250.7393188476562 1511.798706054688 240.3295288085938 1504.37939453125 230.1967163085938 C 1497.031127929688 220.1609191894531 1488.410278320312 210.1587219238281 1478.75634765625 200.4673156738281 C 1469.17919921875 190.8533020019531 1458.360595703125 181.3197021484375 1446.6005859375 172.131103515625 C 1434.913330078125 162.9993286132812 1422.024169921875 153.9955139160156 1408.290771484375 145.3695068359375 C 1380.899169921875 128.1649169921875 1349.4287109375 111.9843139648438 1314.753784179688 97.277099609375 C 1280.056884765625 82.5609130859375 1241.867919921875 69.19970703125 1201.24755859375 57.564697265625 C 1160.225952148438 45.81494140625 1116.363159179688 35.722900390625 1070.877319335938 27.569091796875 C 1024.5458984375 19.263916015625 976.0521240234375 12.8851318359375 926.742919921875 8.61029052734375 C 876.1475219726562 4.22393798828125 824.0641479492188 1.99993896484375 771.9393310546875 1.99993896484375 M 771.9393310546875 -6.103515625e-05 C 1196.682861328125 -6.103515625e-05 1540.607421875 145.82568359375 1540.466796875 326.0105285644531 C 1540.32568359375 506.3934936523438 1195.366333007812 652.8925170898438 769.9783325195312 653.225341796875 C 769.510986328125 653.2257080078125 768.9944458007812 653.2258911132812 768.52734375 653.2258911132812 C 343.7838134765625 653.2258911132812 -0.1407470703125 507.400146484375 -0.0001220703125 327.2153015136719 C 0.1409912109375 146.8323059082031 345.100341796875 0.33331298828125 770.4883422851562 0.00048828125 C 770.9556884765625 0.0001220703125 771.4722290039062 -6.103515625e-05 771.9393310546875 -6.103515625e-05 Z" stroke="none" fill="#ffb217"/>
          </g>
        </g>
        <g transform="matrix(1, 0, 0, 1, 1153.17, -366.2)" filter="url(#路径_758)">
          <g id="路径_758-2" data-name="路径 758" transform="matrix(-0.91, 0.41, -0.41, -0.91, 1342.97, 1528.52)" fill="none">
            <path d="M770.55,0c425.412-.356,770.155,145.577,770,325.95S1195.416,652.833,770,653.188-.151,507.612,0,327.239,345.138.357,770.55,0Z" stroke="none"/>
            <path d="M 772.1022338867188 2 C 771.609619140625 2 771.04443359375 2.00018310546875 770.5514526367188 2.00054931640625 C 718.3466186523438 2.044189453125 666.1734619140625 4.3177490234375 615.4812622070312 8.7581787109375 C 566.0814208984375 13.08514404296875 517.4900512695312 19.5203857421875 471.056396484375 27.88519287109375 C 425.473876953125 36.0965576171875 381.510009765625 46.24896240234375 340.38623046875 58.06036376953125 C 299.6666259765625 69.75555419921875 261.3780517578125 83.17779541015625 226.5836181640625 97.954345703125 C 191.81201171875 112.72119140625 160.247802734375 128.9603881835938 132.7674560546875 146.2207641601562 C 118.989990234375 154.8745727539062 106.0574951171875 163.90576171875 94.3292236328125 173.0635681152344 C 82.52783203125 182.2783813476562 71.6690673828125 191.8377685546875 62.05419921875 201.4757690429688 C 52.3621826171875 211.1913757324219 43.7052001953125 221.2169799804688 36.3236083984375 231.2743835449219 C 28.8704833984375 241.4291687011719 22.538818359375 251.8595886230469 17.5050048828125 262.2759704589844 C 12.4136962890625 272.8115844726562 8.52587890625 283.5895690917969 5.949462890625 294.3105773925781 C 3.3380126953125 305.1777648925781 2.00927734375 316.2569885253906 2 327.2405700683594 C 1.9908447265625 338.2115783691406 3.2978515625 349.2757873535156 5.8846435546875 360.1257629394531 C 8.4366455078125 370.8301696777344 12.296630859375 381.5891723632812 17.357666015625 392.1039733886719 C 22.3616943359375 402.4999694824219 28.6600341796875 412.9081726074219 36.077880859375 423.0393676757812 C 43.4246826171875 433.0733642578125 52.0438232421875 443.0741577148438 61.696044921875 452.7637939453125 C 71.271484375 462.3759765625 82.08837890625 471.907958984375 93.8466796875 481.094970703125 C 105.531982421875 490.2249755859375 118.419189453125 499.2271728515625 132.150634765625 507.8513793945312 C 159.5382080078125 525.0527954101562 191.004638671875 541.22998046875 225.6756591796875 555.9339599609375 C 260.3680419921875 570.6471557617188 298.552978515625 584.00537109375 339.169677734375 595.6377563476562 C 380.18701171875 607.384765625 424.0462646484375 617.474365234375 469.5286865234375 625.6261596679688 C 515.856201171875 633.9293823242188 564.3470458984375 640.3065795898438 613.65380859375 644.5803833007812 C 664.2460327148438 648.965576171875 716.3274536132812 651.18896484375 768.4510498046875 651.18896484375 C 768.9434204101562 651.18896484375 769.5096435546875 651.1887817382812 770.0026245117188 651.1883544921875 C 822.2074584960938 651.144775390625 874.380615234375 648.8711547851562 925.0728149414062 644.4309692382812 C 974.47265625 640.10400390625 1023.064025878906 633.6685791015625 1069.497680664062 625.303955078125 C 1115.080200195312 617.0923461914062 1159.044067382812 606.9400024414062 1200.167846679688 595.1287841796875 C 1240.88720703125 583.43359375 1279.176025390625 570.0113525390625 1313.970458984375 555.2347412109375 C 1348.741821289062 540.4679565429688 1380.306030273438 524.228759765625 1407.786376953125 506.9683837890625 C 1421.563842773438 498.3145751953125 1434.496459960938 489.2833862304688 1446.224609375 480.1255798339844 C 1458.026000976562 470.9107666015625 1468.884887695312 461.3513793945312 1478.499633789062 451.71337890625 C 1488.191650390625 441.9977722167969 1496.8486328125 431.97216796875 1504.230224609375 421.914794921875 C 1511.683471679688 411.7599792480469 1518.015014648438 401.32958984375 1523.048828125 390.9131774902344 C 1528.140258789062 380.3775634765625 1532.028076171875 369.5995788574219 1534.6044921875 358.8785705566406 C 1537.2158203125 348.0113830566406 1538.544677734375 336.9321594238281 1538.553833007812 325.9485778808594 C 1538.56298828125 314.9775695800781 1537.255981445312 303.9133605957031 1534.66943359375 293.0633850097656 C 1532.117431640625 282.3589782714844 1528.257202148438 271.5999755859375 1523.1962890625 261.0851745605469 C 1518.192260742188 250.6891784667969 1511.893798828125 240.2809753417969 1504.47607421875 230.1497802734375 C 1497.129272460938 220.1157836914062 1488.510009765625 210.1149597167969 1478.857788085938 200.4253845214844 C 1469.2822265625 190.81298828125 1458.465209960938 181.2809753417969 1446.707275390625 172.0941772460938 C 1435.021850585938 162.9639587402344 1422.134399414062 153.9619750976562 1408.403198242188 145.3377685546875 C 1381.015380859375 128.1363525390625 1349.549072265625 111.958984375 1314.878051757812 97.25494384765625 C 1280.185424804688 82.541748046875 1242.00048828125 69.18359375 1201.3837890625 57.5513916015625 C 1160.366455078125 45.80419921875 1116.507202148438 35.714599609375 1071.02490234375 27.562744140625 C 1024.697021484375 19.25958251953125 976.2062377929688 12.88238525390625 926.8994140625 8.60858154296875 C 876.3072509765625 4.223388671875 824.225830078125 2 772.1022338867188 2 M 772.1022338867188 -6.103515625e-05 C 1196.833862304688 -6.103515625e-05 1540.704467773438 145.7865600585938 1540.553833007812 325.9501647949219 C 1540.403198242188 506.3229675292969 1195.41650390625 652.8325805664062 770.0042114257812 653.1883544921875 C 769.5109252929688 653.1887817382812 768.944091796875 653.1890258789062 768.4509887695312 653.1890258789062 C 343.7193603515625 653.1890258789062 -0.150390625 507.402587890625 0 327.2389831542969 C 0.150634765625 146.8661804199219 345.1376953125 0.3565673828125 770.5498657226562 0.00054931640625 C 771.0431518554688 0.00018310546875 771.609130859375 -6.103515625e-05 772.1022338867188 -6.103515625e-05 Z" stroke="none" fill="#ffb217"/>
          </g>
        </g>
        <g transform="matrix(1, 0, 0, 1, 1153.17, -366.2)" filter="url(#路径_759)">
          <g id="路径_759-2" data-name="路径 759" transform="matrix(-0.9, 0.44, -0.44, -0.9, 1285.77, 1431.7)" fill="none">
            <path d="M770.613,0c425.438-.377,770.194,145.529,770.034,325.891s-345.175,326.88-770.612,327.258S-.16,507.62,0,327.258,345.175.378,770.613,0Z" stroke="none"/>
            <path d="M 772.2593383789062 1.99981689453125 C 771.7147827148438 1.99981689453125 771.1587524414062 2.000244140625 770.6143798828125 2.00067138671875 C 718.4063720703125 2.04705810546875 666.22998046875 4.32305908203125 615.5343627929688 8.765625 C 566.131591796875 13.0948486328125 517.5367431640625 19.5322265625 471.0999755859375 27.89886474609375 C 425.51416015625 36.112060546875 381.547119140625 46.26605224609375 340.42041015625 58.07861328125 C 299.69775390625 69.7752685546875 261.4061279296875 83.19866943359375 226.6090087890625 97.97601318359375 C 191.8345947265625 112.7438354492188 160.267578125 128.983642578125 132.7847900390625 146.2444458007812 C 119.0059814453125 154.8982543945312 106.0721435546875 163.9296569824219 94.342529296875 173.0874328613281 C 82.5401611328125 182.3024291992188 71.68017578125 191.8616333007812 62.0643310546875 201.4996337890625 C 52.371337890625 211.2152404785156 43.713134765625 221.2406311035156 36.33056640625 231.2978515625 C 28.8763427734375 241.4524536132812 22.5439453125 251.8826293945312 17.5093994140625 262.2986450195312 C 12.4171142578125 272.8336486816406 8.528564453125 283.6112365722656 5.951416015625 294.3318481445312 C 3.33935546875 305.1984558105469 2.010009765625 316.2770385742188 2.0001220703125 327.2600402832031 C 1.9903564453125 338.2288513183594 3.2967529296875 349.2910461425781 5.8829345703125 360.1390380859375 C 8.434326171875 370.8412475585938 12.2939453125 381.5982360839844 17.3543701171875 392.1112365722656 C 22.3575439453125 402.5054321289062 28.6553955078125 412.91162109375 36.072509765625 423.0410461425781 C 43.4185791015625 433.0732421875 52.037109375 443.072021484375 61.688720703125 452.7600402832031 C 71.2635498046875 462.3706359863281 82.0797119140625 471.9008483886719 93.8369140625 481.0860595703125 C 105.5216064453125 490.2146606445312 118.408203125 499.2150268554688 132.1385498046875 507.8378295898438 C 159.5244140625 525.0360107421875 190.98876953125 541.21044921875 225.6575927734375 555.911865234375 C 260.3477783203125 570.6224365234375 298.5301513671875 583.978271484375 339.1439208984375 595.608642578125 C 380.1583251953125 607.3534545898438 424.01416015625 617.4412231445312 469.492919921875 625.5916137695312 C 515.8170166015625 633.8934326171875 564.3033447265625 640.2694702148438 613.6055908203125 644.5424194335938 C 664.193359375 648.9270629882812 716.2693481445312 651.1500244140625 768.3873901367188 651.1500244140625 C 768.9319458007812 651.1500244140625 769.4879760742188 651.149658203125 770.0323486328125 651.1492309570312 C 822.2403564453125 651.10302734375 874.416748046875 648.8268432617188 925.1123657226562 644.3844604492188 C 974.51513671875 640.0552368164062 1023.109985351562 633.6178588867188 1069.546630859375 625.251220703125 C 1115.13232421875 617.0380249023438 1159.099365234375 606.884033203125 1200.226318359375 595.0712280273438 C 1240.94873046875 583.3748168945312 1279.240356445312 569.951416015625 1314.037719726562 555.173828125 C 1348.81201171875 540.40625 1380.37890625 524.1664428710938 1407.861938476562 506.9056396484375 C 1421.640625 498.2516479492188 1434.574340820312 489.220458984375 1446.303955078125 480.0624389648438 C 1458.106323242188 470.84765625 1468.96630859375 461.2882385253906 1478.582153320312 451.6502380371094 C 1488.275146484375 441.9348449707031 1496.933349609375 431.9092407226562 1504.31591796875 421.8522338867188 C 1511.770141601562 411.6976318359375 1518.1025390625 401.2674560546875 1523.13720703125 390.8512573242188 C 1528.229370117188 380.3162536621094 1532.117919921875 369.5386352539062 1534.695190429688 358.8180541992188 C 1537.30712890625 347.9514465332031 1538.636596679688 336.8728332519531 1538.646362304688 325.8898315429688 C 1538.656127929688 314.9210510253906 1537.349731445312 303.8588562011719 1534.763549804688 293.0108337402344 C 1532.212158203125 282.3086547851562 1528.352783203125 271.5516357421875 1523.292358398438 261.0386352539062 C 1518.288940429688 250.6446533203125 1511.991333007812 240.2382507324219 1504.57421875 230.1088562011719 C 1497.227905273438 220.0766296386719 1488.609619140625 210.0778503417969 1478.9580078125 200.3900451660156 C 1469.383178710938 190.7794494628906 1458.567016601562 181.2490539550781 1446.8095703125 172.0638427734375 C 1435.125 162.9354553222656 1422.238525390625 153.9348449707031 1408.508178710938 145.312255859375 C 1381.122192382812 128.114013671875 1349.657958984375 111.939453125 1314.989135742188 97.238037109375 C 1280.298950195312 82.52764892578125 1242.116577148438 69.171630859375 1201.502807617188 57.54144287109375 C 1160.488403320312 45.79644775390625 1116.632568359375 35.7086181640625 1071.15380859375 27.5582275390625 C 1024.829833984375 19.2564697265625 976.3433837890625 12.88043212890625 927.0411376953125 8.607421875 C 876.453369140625 4.22283935546875 824.3773803710938 1.99981689453125 772.2593383789062 1.99981689453125 M 772.2593383789062 -6.103515625e-05 C 1196.94482421875 -6.103515625e-05 1540.80615234375 145.7610168457031 1540.646362304688 325.8916320800781 C 1540.48681640625 506.2538452148438 1195.471557617188 652.7720336914062 770.0341796875 653.1492309570312 C 769.4888916015625 653.1497192382812 768.932373046875 653.1499633789062 768.3873901367188 653.1499633789062 C 343.701904296875 653.1499633789062 -0.159423828125 507.3890686035156 0.0001220703125 327.2582397460938 C 0.1597900390625 146.896240234375 345.1749267578125 0.3780517578125 770.612548828125 0.00067138671875 C 771.1578369140625 0.00018310546875 771.71435546875 -6.103515625e-05 772.2593383789062 -6.103515625e-05 Z" stroke="none" fill="#ffb217"/>
          </g>
        </g>
        <g transform="matrix(1, 0, 0, 1, 1153.17, -366.2)" filter="url(#路径_760)">
          <g id="路径_760-2" data-name="路径 760" transform="matrix(-0.88, 0.47, -0.47, -0.88, 1221.93, 1323.67)" fill="none">
            <path d="M770.677,0c425.465-.4,770.236,145.484,770.068,325.835S1195.533,652.711,770.068,653.108-.168,507.624,0,327.273,345.212.4,770.677,0Z" stroke="none"/>
            <path d="M 772.4093017578125 2 C 771.8389282226562 2 771.24951171875 2.00018310546875 770.6785278320312 2.00079345703125 C 718.46728515625 2.049560546875 666.2872924804688 4.3277587890625 615.5883178710938 8.77239990234375 C 566.18212890625 13.103759765625 517.5839233398438 19.54278564453125 471.1439208984375 27.9110107421875 C 425.5546875 36.1259765625 381.58447265625 46.2813720703125 340.4544677734375 58.09515380859375 C 299.728759765625 69.79278564453125 261.43408203125 83.2171630859375 226.6339111328125 97.99517822265625 C 191.8565673828125 112.7636108398438 160.2867431640625 129.0039672851562 132.80126953125 146.2649841308594 C 119.0213623046875 154.9187927246094 106.0863037109375 163.9501953125 94.355712890625 173.1079711914062 C 82.5518798828125 182.3229675292969 71.690673828125 191.8821716308594 62.073974609375 201.5199890136719 C 52.3798828125 211.2353820800781 43.720703125 221.2605895996094 36.337158203125 231.3173828125 C 28.882080078125 241.4717712402344 22.5487060546875 251.9015808105469 17.5133056640625 262.3171691894531 C 12.4202880859375 272.8517761230469 8.5308837890625 283.6287841796875 5.953125 294.3487854003906 C 3.34033203125 305.2147827148438 2.01025390625 316.2927856445312 2.0001220703125 327.2749938964844 C 1.9898681640625 338.2425842285156 3.295654296875 349.3031921386719 5.881103515625 360.1495971679688 C 8.4317626953125 370.8505859375 12.29052734375 381.6059875488281 17.349853515625 392.1173706054688 C 22.352294921875 402.5099792480469 28.649169921875 412.9145812988281 36.0653076171875 423.0423889160156 C 43.4102783203125 433.0731811523438 52.0277099609375 443.0703735351562 61.6781005859375 452.756591796875 C 71.251708984375 462.3656005859375 82.0667724609375 471.8943786621094 93.82275390625 481.0780029296875 C 105.506103515625 490.2049865722656 118.391357421875 499.2037963867188 132.120361328125 507.8249816894531 C 159.503662109375 525.0202026367188 190.96533203125 541.1915893554688 225.63134765625 555.8901977539062 C 260.3187255859375 570.5977783203125 298.498291015625 583.9509887695312 339.1094970703125 595.5789794921875 C 380.12109375 607.3215942382812 423.974365234375 617.4071655273438 469.451171875 625.5559692382812 C 515.7724609375 633.85595703125 564.2568969726562 640.2305908203125 613.5574951171875 644.5025634765625 C 664.1431274414062 648.885986328125 716.2177124023438 651.1085815429688 768.334716796875 651.1085815429688 C 768.9050903320312 651.1085815429688 769.4953002929688 651.1083984375 770.0662841796875 651.1077880859375 C 822.2775268554688 651.0589599609375 874.45751953125 648.78076171875 925.156494140625 644.336181640625 C 974.562744140625 640.0047607421875 1023.160705566406 633.5657958984375 1069.600952148438 625.1975708007812 C 1115.18994140625 616.9826049804688 1159.16015625 606.8272094726562 1200.290283203125 595.0133666992188 C 1241.015869140625 583.3157958984375 1279.310668945312 569.891357421875 1314.110717773438 555.1134033203125 C 1348.888061523438 540.344970703125 1380.457885742188 524.1047973632812 1407.943359375 506.8437805175781 C 1421.723266601562 498.1897888183594 1434.658325195312 489.1583862304688 1446.388916015625 480.0005798339844 C 1458.192749023438 470.7855834960938 1469.053955078125 461.2265625 1478.670654296875 451.5887756347656 C 1488.36474609375 441.8733825683594 1497.02392578125 431.8479614257812 1504.407470703125 421.7911987304688 C 1511.862548828125 411.636962890625 1518.195922851562 401.2071838378906 1523.231323242188 390.7915954589844 C 1528.324340820312 380.2569885253906 1532.213745117188 369.47998046875 1534.79150390625 358.7599792480469 C 1537.404296875 347.8939819335938 1538.734375 336.8159790039062 1538.744506835938 325.8337707519531 C 1538.754760742188 314.8661804199219 1537.448974609375 303.8055725097656 1534.863525390625 292.9591674804688 C 1532.312866210938 282.2581787109375 1528.4541015625 271.5027770996094 1523.39453125 260.9913940429688 C 1518.39208984375 250.5987854003906 1512.095336914062 240.1941833496094 1504.679321289062 230.0663757324219 C 1497.334106445312 220.0355834960938 1488.716674804688 210.0383911132812 1479.066284179688 200.3521728515625 C 1469.49267578125 190.7431945800781 1458.677734375 181.2143859863281 1446.921508789062 172.0305786132812 C 1435.23828125 162.9037780761719 1422.353149414062 153.90478515625 1408.623901367188 145.2837829589844 C 1381.24072265625 128.0885620117188 1349.778930664062 111.9171752929688 1315.112915039062 97.2183837890625 C 1280.425537109375 82.51080322265625 1242.245849609375 69.1575927734375 1201.634521484375 57.52960205078125 C 1160.622924804688 45.7869873046875 1116.769775390625 35.70135498046875 1071.29296875 27.55279541015625 C 1024.971435546875 19.2525634765625 976.4871215820312 12.87799072265625 927.1865234375 8.60595703125 C 876.6008911132812 4.22259521484375 824.5263061523438 2 772.4093017578125 2 M 772.4092407226562 0 C 1197.085815429688 0 1540.912231445312 145.7271423339844 1540.744506835938 325.8355712890625 C 1540.576538085938 506.1859741210938 1195.53271484375 652.7107543945312 770.068115234375 653.1077880859375 C 769.496826171875 653.1083374023438 768.90576171875 653.1085815429688 768.334716796875 653.1085815429688 C 343.657958984375 653.1085815429688 -0.1678466796875 507.381591796875 0.0001220703125 327.273193359375 C 0.1680908203125 146.9225769042969 345.2119140625 0.39776611328125 770.6766967773438 0.00079345703125 C 771.248046875 0.000244140625 771.8382568359375 0 772.4092407226562 0 Z" stroke="none" fill="#ffb217"/>
          </g>
        </g>
        <g transform="matrix(1, 0, 0, 1, 1153.17, -366.2)" filter="url(#路径_761)">
          <g id="路径_761-2" data-name="路径 761" transform="translate(1168.31 1251.36) rotate(150)" fill="none">
            <path d="M770.742,0c425.493-.415,770.281,145.442,770.106,325.781S1195.6,652.65,770.106,653.065-.175,507.622,0,327.284,345.248.416,770.742,0Z" stroke="none"/>
            <path d="M 772.55126953125 2 C 771.954833984375 2 771.3404541015625 2.00018310546875 770.74365234375 2.00079345703125 C 718.5288696289062 2.0517578125 666.34521484375 4.33197021484375 615.6426391601562 8.77838134765625 C 566.2330322265625 13.111572265625 517.6312255859375 19.5523681640625 471.1876220703125 27.9219970703125 C 425.59521484375 36.13818359375 381.6217041015625 46.2947998046875 340.48828125 58.10955810546875 C 299.7593994140625 69.80816650390625 261.461669921875 83.233154296875 226.658447265625 98.01177978515625 C 191.8782958984375 112.7805786132812 160.3056640625 129.0211791992188 132.817626953125 146.2821655273438 C 119.0362548828125 154.9361877441406 106.10009765625 163.9673767089844 94.3682861328125 173.1251831054688 C 82.563232421875 182.3399658203125 71.7010498046875 191.8989868164062 62.083251953125 201.5365905761719 C 52.3880615234375 211.2515869140625 43.7279052734375 221.2767639160156 36.343505859375 231.3331909179688 C 28.88720703125 241.4871826171875 22.55322265625 251.9163818359375 17.516845703125 262.3315734863281 C 12.423095703125 272.8657836914062 8.5330810546875 283.6421813964844 5.95458984375 294.361572265625 C 3.3411865234375 305.2269897460938 2.0106201171875 316.3041687011719 2 327.2857666015625 C 1.989501953125 338.2517700195312 3.294677734375 349.3109741210938 5.87939453125 360.1559753417969 C 8.429443359375 370.8551635742188 12.28759765625 381.6091613769531 17.346435546875 392.1189880371094 C 22.3480224609375 402.5099792480469 28.64404296875 412.9131774902344 36.0594482421875 423.0393676757812 C 43.4036865234375 433.0685729980469 52.020263671875 443.0641784667969 61.6697998046875 452.7489624023438 C 71.24267578125 462.3563842773438 82.056640625 471.8835754394531 93.8118896484375 481.0657958984375 C 105.4942626953125 490.191162109375 118.37841796875 499.1885986328125 132.106689453125 507.8083801269531 C 159.48779296875 525.0006103515625 190.9473876953125 541.169189453125 225.6116943359375 555.8651733398438 C 260.2969970703125 570.5701904296875 298.474609375 583.9209594726562 339.083984375 595.5467529296875 C 380.0936279296875 607.2869873046875 423.945068359375 617.3707885742188 469.4200439453125 625.5177612304688 C 515.7396240234375 633.816162109375 564.2224731445312 640.1895751953125 613.5216674804688 644.4607543945312 C 664.1058349609375 648.8432006835938 716.1792602539062 651.0653686523438 768.2954711914062 651.0653686523438 C 768.891845703125 651.0653686523438 769.5070190429688 651.065185546875 770.1038208007812 651.0645751953125 C 822.3186645507812 651.0137939453125 874.5022583007812 648.7333984375 925.2046508789062 644.2869873046875 C 974.6144409179688 639.9539794921875 1023.216064453125 633.51318359375 1069.65966796875 625.1435546875 C 1115.252075195312 616.9273681640625 1159.2255859375 606.770751953125 1200.359008789062 594.9559936523438 C 1241.087890625 583.2573852539062 1279.385620117188 569.8323974609375 1314.188842773438 555.0537719726562 C 1348.968994140625 540.2849731445312 1380.541625976562 524.0443725585938 1408.029663085938 506.7833862304688 C 1421.810791015625 498.12939453125 1434.747192382812 489.0981750488281 1446.47900390625 479.9403686523438 C 1458.283813476562 470.7255859375 1469.146240234375 461.1665649414062 1478.764038085938 451.5289916992188 C 1488.459228515625 441.81396484375 1497.119262695312 431.7887573242188 1504.50390625 421.7323608398438 C 1511.959838867188 411.578369140625 1518.294067382812 401.149169921875 1523.330200195312 390.7339782714844 C 1528.424072265625 380.1997680664062 1532.314086914062 369.4233703613281 1534.892456054688 358.7039794921875 C 1537.505859375 347.8385620117188 1538.83642578125 336.7613830566406 1538.847045898438 325.77978515625 C 1538.857666015625 314.8137817382812 1537.552490234375 303.7545776367188 1534.967651367188 292.9095764160156 C 1532.417602539062 282.2101745605469 1528.559448242188 271.4563903808594 1523.500610351562 260.9465637207031 C 1518.4990234375 250.5553894042969 1512.203002929688 240.1523742675781 1504.78759765625 230.0259704589844 C 1497.443481445312 219.9969787597656 1488.826904296875 210.0011901855469 1479.17724609375 200.3165893554688 C 1469.6044921875 190.708984375 1458.790405273438 181.1817626953125 1447.035278320312 171.9995727539062 C 1435.352783203125 162.8741760253906 1422.468505859375 153.8767700195312 1408.740234375 145.2571716308594 C 1381.359008789062 128.0650024414062 1349.899291992188 111.8961791992188 1315.235229492188 97.2001953125 C 1280.5498046875 82.49517822265625 1242.372314453125 69.14434814453125 1201.7626953125 57.518798828125 C 1160.753051757812 45.77838134765625 1116.901611328125 35.694580078125 1071.426635742188 27.54754638671875 C 1025.107055664062 19.2491455078125 976.624267578125 12.87579345703125 927.3248291015625 8.60455322265625 C 876.7408447265625 4.22216796875 824.6674194335938 2 772.55126953125 2 M 772.5512084960938 -0.0001220703125 C 1197.220092773438 -0.0001220703125 1541.022583007812 145.6963500976562 1540.847045898438 325.7817687988281 C 1540.671630859375 506.120361328125 1195.598876953125 652.6499633789062 770.1058349609375 653.0645751953125 C 769.508544921875 653.065185546875 768.8923950195312 653.0654296875 768.29541015625 653.0654296875 C 343.6263427734375 653.0654296875 -0.17529296875 507.3690185546875 0 327.2837829589844 C 0.1756591796875 146.9451904296875 345.2484130859375 0.41558837890625 770.7416381835938 0.00079345703125 C 771.3389282226562 0.00018310546875 771.9542236328125 -0.0001220703125 772.5512084960938 -0.0001220703125 Z" stroke="none" fill="#ffb217"/>
          </g>
        </g>
        <g transform="matrix(1, 0, 0, 1, 1153.17, -366.2)" filter="url(#路径_762)">
          <g id="路径_762-2" data-name="路径 762" transform="matrix(-0.85, 0.53, -0.53, -0.85, 1079.96, 1169.19)" fill="none">
            <path d="M770.807,0c425.523-.43,770.329,145.4,770.147,325.73S1195.67,652.589,770.147,653.019-.182,507.616,0,327.29,345.284.431,770.807,0Z" stroke="none"/>
            <path d="M 772.685791015625 2 C 772.0633544921875 2 771.4315795898438 2.0003662109375 770.8089599609375 2.0009765625 C 718.590576171875 2.05377197265625 666.4033813476562 4.33599853515625 615.6971435546875 8.78399658203125 C 566.2837524414062 13.118408203125 517.6785888671875 19.56060791015625 471.2313232421875 27.931396484375 C 425.6356201171875 36.1488037109375 381.6583251953125 46.30621337890625 340.521728515625 58.12158203125 C 299.789794921875 69.82098388671875 261.488525390625 83.24658203125 226.6826171875 98.025390625 C 191.8994140625 112.7946166992188 160.323974609375 129.0349731445312 132.8336181640625 146.2958068847656 C 119.051025390625 154.9497985839844 106.1134033203125 163.9809875488281 94.38037109375 173.1383972167969 C 82.5743408203125 182.3529968261719 71.7109375 191.9118041992188 62.0919189453125 201.5491943359375 C 52.395751953125 211.2640075683594 43.7347412109375 221.2886047363281 36.349365234375 231.3446044921875 C 28.892333984375 241.4981994628906 22.5576171875 251.927001953125 17.5206298828125 262.3415832519531 C 12.426025390625 272.8751831054688 8.53515625 283.6510009765625 5.9564208984375 294.3697814941406 C 3.3424072265625 305.2344055175781 2.01123046875 316.3110046386719 2.0001220703125 327.2915954589844 C 1.989013671875 338.2814025878906 3.2998046875 349.3641967773438 5.8961181640625 360.2323913574219 C 8.4573974609375 370.9541931152344 12.33251953125 381.7301940917969 17.413818359375 392.2613830566406 C 22.4376220703125 402.6734008789062 28.7613525390625 413.0968017578125 36.2093505859375 423.2423706054688 C 43.5859375 433.2904052734375 52.2401123046875 443.30419921875 61.9317626953125 453.005615234375 C 90.709716796875 481.8125915527344 129.2501220703125 508.706787109375 176.482421875 532.94140625 C 223.4505615234375 557.0404052734375 278.2471923828125 578.1192016601562 339.3497314453125 595.5925903320312 C 401.3387451171875 613.3193969726562 468.8768310546875 627.0590209960938 540.0875854492188 636.4293823242188 C 613.6641845703125 646.1113891601562 690.4353637695312 651.0203857421875 768.2683715820312 651.0203857421875 C 768.8907470703125 651.0203857421875 769.5225830078125 651.02001953125 770.1452026367188 651.0194091796875 C 822.3635864257812 650.9666137695312 874.55078125 648.6843872070312 925.2572021484375 644.2363891601562 C 974.6703491210938 639.9019775390625 1023.275756835938 633.4597778320312 1069.722778320312 625.0889892578125 C 1115.31884765625 616.8717651367188 1159.295776367188 606.7141723632812 1200.432373046875 594.8988037109375 C 1241.16455078125 583.1994018554688 1279.465576171875 569.7739868164062 1314.271606445312 554.9951782226562 C 1349.054809570312 540.2260131835938 1380.630126953125 523.9854125976562 1408.120727539062 506.724609375 C 1421.9033203125 498.07080078125 1434.8408203125 489.0396118164062 1446.57373046875 479.8819885253906 C 1458.380004882812 470.6673889160156 1469.243408203125 461.1085815429688 1478.862182617188 451.4713745117188 C 1488.558349609375 441.756591796875 1497.219604492188 431.7319946289062 1504.60498046875 421.67578125 C 1512.061767578125 411.5223999023438 1518.396728515625 401.0933837890625 1523.433715820312 390.6788024902344 C 1528.5283203125 380.1452026367188 1532.419189453125 369.369384765625 1534.997924804688 358.6506042480469 C 1537.611938476562 347.7859802246094 1538.942993164062 336.7093811035156 1538.954223632812 325.7287902832031 C 1538.96533203125 314.7389831542969 1537.654541015625 303.6561889648438 1535.058227539062 292.7879943847656 C 1532.496948242188 282.0661926269531 1528.621826171875 271.2899780273438 1523.540405273438 260.7590026855469 C 1518.5166015625 250.3469848632812 1512.192749023438 239.9234008789062 1504.744750976562 229.7779846191406 C 1497.3681640625 219.72998046875 1488.713989257812 209.7161865234375 1479.022338867188 200.0148010253906 C 1450.244384765625 171.2077941894531 1411.703979492188 144.3133850097656 1364.471801757812 120.0789794921875 C 1317.50341796875 95.97998046875 1262.70703125 74.9010009765625 1201.604370117188 57.42779541015625 C 1139.615356445312 39.70098876953125 1072.077392578125 25.96136474609375 1000.866577148438 16.59100341796875 C 927.2899780273438 6.90899658203125 850.518798828125 2 772.685791015625 2 M 772.6857299804688 6.103515625e-05 C 1197.348510742188 6.103515625e-05 1541.136108398438 145.6689453125 1540.954223632812 325.7308044433594 C 1540.771728515625 506.0570068359375 1195.669921875 652.5889892578125 770.1471557617188 653.0194091796875 C 769.5238647460938 653.02001953125 768.8914184570312 653.0203247070312 768.2684326171875 653.0203247070312 C 343.6058349609375 653.0203247070312 -0.1820068359375 507.3514404296875 0.0001220703125 327.2895812988281 C 0.182373046875 146.9635925292969 345.284423828125 0.431396484375 770.8069458007812 0.0009765625 C 771.4302978515625 0.0003662109375 772.062744140625 6.103515625e-05 772.6857299804688 6.103515625e-05 Z" stroke="none" fill="#ffb217"/>
          </g>
        </g>
        <g transform="matrix(1, 0, 0, 1, 1153.17, -366.2)" filter="url(#路径_763)">
          <g id="路径_763-2" data-name="路径 763" transform="translate(993.58 1092.33) rotate(146)" fill="none">
            <path d="M770.873,0c425.553-.444,770.38,145.369,770.192,325.682s-345.319,326.846-770.873,327.29S-.188,507.6,0,327.291,345.319.445,770.873,0Z" stroke="none"/>
            <path d="M 772.8110961914062 2 C 772.1886596679688 2 771.4974975585938 2.00042724609375 770.8746948242188 2.00103759765625 C 718.6524658203125 2.055419921875 666.4614868164062 4.3389892578125 615.75146484375 8.78839111328125 C 566.33447265625 13.12420654296875 517.7254638671875 19.56744384765625 471.274658203125 27.93902587890625 C 425.67529296875 36.1572265625 381.6947021484375 46.3154296875 340.5546875 58.13140869140625 C 299.8193359375 69.83123779296875 261.51513671875 83.25701904296875 226.7059326171875 98.03582763671875 C 191.919677734375 112.8049926757812 160.3414306640625 129.04541015625 132.8485107421875 146.3060302734375 C 119.064697265625 154.9596252441406 106.1258544921875 163.9906311035156 94.3917236328125 173.1480102539062 C 82.58447265625 182.3622131347656 71.7200927734375 191.9206237792969 62.10009765625 201.5576171875 C 52.40283203125 211.2720031738281 43.7408447265625 221.2962036132812 36.354736328125 231.351806640625 C 28.8968505859375 241.5048217773438 22.56103515625 251.9330139160156 17.5233154296875 262.3470153808594 C 12.4281005859375 272.8800048828125 8.5367431640625 283.6552124023438 5.957275390625 294.3734130859375 C 3.3428955078125 305.2372131347656 2.01123046875 316.3130187988281 1.9998779296875 327.2928161621094 C 1.988525390625 338.2814025878906 3.2984619140625 349.3626098632812 5.8939208984375 360.2292175292969 C 8.4544677734375 370.9496154785156 12.3284912109375 381.7240295410156 17.408447265625 392.25341796875 C 22.430908203125 402.663818359375 28.7530517578125 413.0856323242188 36.199462890625 423.2294311523438 C 43.5743408203125 433.2758178710938 52.2266845703125 443.2878112792969 61.916259765625 452.9876098632812 C 90.6903076171875 481.7916259765625 129.22705078125 508.6826171875 176.456298828125 532.913818359375 C 223.4215087890625 557.0093994140625 278.216064453125 578.085205078125 339.31787109375 595.5557861328125 C 401.305908203125 613.2796020507812 468.8447265625 627.0166015625 540.0584716796875 636.3854370117188 C 613.6370849609375 646.0654296875 690.4130859375 650.9736328125 768.2534790039062 650.9736328125 C 768.8759155273438 650.9736328125 769.5670776367188 650.9732055664062 770.1898803710938 650.9725952148438 C 822.412109375 650.918212890625 874.6030883789062 648.6346435546875 925.3131103515625 644.1852416992188 C 974.7301025390625 639.8494262695312 1023.339111328125 633.4061889648438 1069.789916992188 625.0346069335938 C 1115.389282226562 616.81640625 1159.369873046875 606.658203125 1200.509887695312 594.8422241210938 C 1241.245361328125 583.1423950195312 1279.549560546875 569.7166137695312 1314.358520507812 554.9378051757812 C 1349.144653320312 540.1686401367188 1380.722900390625 523.92822265625 1408.2158203125 506.6676025390625 C 1421.999877929688 498.0140380859375 1434.9384765625 488.9830322265625 1446.672729492188 479.8256225585938 C 1458.479858398438 470.6114196777344 1469.344482421875 461.0530090332031 1478.964233398438 451.416015625 C 1488.661499023438 441.7015991210938 1497.323486328125 431.6774291992188 1504.709716796875 421.621826171875 C 1512.16748046875 411.4688110351562 1518.503295898438 401.0406188964844 1523.541137695312 390.6266174316406 C 1528.63623046875 380.0936279296875 1532.527709960938 369.3184204101562 1535.107055664062 358.6002197265625 C 1537.721435546875 347.7364196777344 1539.053100585938 336.6606140136719 1539.064453125 325.6808166503906 C 1539.075927734375 314.6924133300781 1537.765869140625 303.6110229492188 1535.170532226562 292.7444152832031 C 1532.60986328125 282.0242309570312 1528.73583984375 271.2496032714844 1523.655883789062 260.72021484375 C 1518.633544921875 250.309814453125 1512.311279296875 239.8880310058594 1504.864868164062 229.7442016601562 C 1497.490112304688 219.6980285644531 1488.837646484375 209.6858215332031 1479.148071289062 199.9862060546875 C 1450.3740234375 171.1822204589844 1411.837280273438 144.291015625 1364.608154296875 120.0599975585938 C 1317.642822265625 95.9642333984375 1262.848266601562 74.888427734375 1201.746459960938 57.41802978515625 C 1139.758666992188 39.6942138671875 1072.219848632812 25.95703125 1001.006103515625 16.58819580078125 C 927.4273071289062 6.908203125 850.6514892578125 2 772.8110961914062 2 M 772.8110961914062 0 C 1197.50390625 0 1541.252197265625 145.6339416503906 1541.064453125 325.6828308105469 C 1540.87646484375 505.9960327148438 1195.7451171875 652.5286254882812 770.19189453125 652.9725952148438 C 769.5685424804688 652.9732666015625 768.8765258789062 652.9736328125 768.2534790039062 652.9736328125 C 343.5604248046875 652.9736328125 -0.1878662109375 507.3399047851562 -0.0001220703125 327.2908020019531 C 0.1878662109375 146.9776306152344 345.3194580078125 0.44500732421875 770.8726806640625 0.00103759765625 C 771.4960327148438 0.0003662109375 772.1880493164062 0 772.8110961914062 0 Z" stroke="none" fill="#ffb217"/>
          </g>
        </g>
        <g transform="matrix(1, 0, 0, 1, 1153.17, -366.2)" filter="url(#路径_764)">
          <g id="路径_764-2" data-name="路径 764" transform="matrix(-0.81, 0.59, -0.59, -0.81, 877.3, 1023.48)" fill="none">
            <path d="M770.938,0c425.585-.455,770.433,145.337,770.24,325.637S1195.825,652.469,770.24,652.925-.193,507.587,0,327.288,345.354.457,770.938,0Z" stroke="none"/>
            <path d="M 772.9268798828125 2 C 772.2785034179688 2 771.589111328125 2.00042724609375 770.940673828125 2.0009765625 C 718.7144775390625 2.0570068359375 666.5197143554688 4.341796875 615.8056640625 8.79217529296875 C 566.3848876953125 13.1290283203125 517.7720947265625 19.572998046875 471.3177490234375 27.94537353515625 C 425.7147216796875 36.1641845703125 381.73046875 46.32281494140625 340.5872802734375 58.13897705078125 C 299.8485107421875 69.8389892578125 261.5408935546875 83.2647705078125 226.7288818359375 98.0435791015625 C 191.939697265625 112.8126220703125 160.358642578125 129.0527954101562 132.863037109375 146.3128051757812 C 119.078125 154.9661865234375 106.1380615234375 163.9967956542969 94.4029541015625 173.15380859375 C 82.594482421875 182.3675842285156 71.7288818359375 191.9255981445312 62.108154296875 201.5621948242188 C 52.409912109375 211.2761840820312 43.7469482421875 221.2998046875 36.35986328125 231.3547973632812 C 28.9012451171875 241.5073852539062 22.564697265625 251.9349975585938 17.5264892578125 262.348388671875 C 12.4305419921875 272.8807983398438 8.5386962890625 283.6552124023438 5.958740234375 294.3725891113281 C 3.34375 305.2358093261719 2.0118408203125 316.3106079101562 2.0001220703125 327.289794921875 C 1.98828125 338.2749938964844 3.2978515625 349.3532104492188 5.892333984375 360.2166137695312 C 8.45166015625 370.9338073730469 12.324462890625 381.7054138183594 17.4027099609375 392.2318115234375 C 22.4237060546875 402.639404296875 28.744140625 413.0584106445312 36.1881103515625 423.1994018554688 C 43.5606689453125 433.2429809570312 52.210693359375 443.2523803710938 61.8974609375 452.9495849609375 C 90.6689453125 481.7518005371094 129.2047119140625 508.6414184570312 176.434326171875 532.8713989257812 C 223.3995361328125 556.9658203125 278.1953125 578.0404052734375 339.29931640625 595.5101928710938 C 401.2890625 613.2332153320312 468.8304443359375 626.9696044921875 540.0473022460938 636.3380126953125 C 613.6290893554688 646.017578125 690.4082641601562 650.9255981445312 768.251708984375 650.9255981445312 C 768.9000854492188 650.9255981445312 769.5894775390625 650.9251708984375 770.2379150390625 650.9246215820312 C 822.464111328125 650.8687744140625 874.6591186523438 648.5838012695312 925.3731079101562 644.1336059570312 C 974.793701171875 639.7965698242188 1023.406494140625 633.3526000976562 1069.86083984375 624.9804077148438 C 1115.464111328125 616.7615966796875 1159.448120117188 606.60302734375 1200.591552734375 594.7868041992188 C 1241.330322265625 583.0866088867188 1279.6376953125 569.6607666015625 1314.44970703125 554.8820190429688 C 1349.238891601562 540.1129760742188 1380.819946289062 523.8729858398438 1408.3154296875 506.6130065917969 C 1422.100708007812 497.9595947265625 1435.04052734375 488.9290161132812 1446.775634765625 479.7720031738281 C 1458.584106445312 470.5579833984375 1469.44970703125 461 1479.070556640625 451.3635864257812 C 1488.768676757812 441.6495971679688 1497.431640625 431.6257934570312 1504.818725585938 421.57080078125 C 1512.27734375 411.4183959960938 1518.613891601562 400.9906005859375 1523.652099609375 390.577392578125 C 1528.748046875 380.0450134277344 1532.639892578125 369.2705993652344 1535.219848632812 358.5531921386719 C 1537.834838867188 347.6900024414062 1539.166748046875 336.6152038574219 1539.178466796875 325.635986328125 C 1539.190307617188 314.6507873535156 1537.880737304688 303.5726013183594 1535.286254882812 292.7091979980469 C 1532.726684570312 281.9917907714844 1528.854125976562 271.2203979492188 1523.775634765625 260.6937866210938 C 1518.754638671875 250.2861938476562 1512.434448242188 239.8674011230469 1504.990234375 229.7261962890625 C 1497.61767578125 219.6825866699219 1488.967651367188 209.6731872558594 1479.280883789062 199.9760131835938 C 1450.509521484375 171.1737976074219 1411.9736328125 144.2842102050781 1364.744140625 120.05419921875 C 1317.778930664062 95.95977783203125 1262.983154296875 74.88519287109375 1201.879150390625 57.4154052734375 C 1139.889282226562 39.6923828125 1072.347900390625 25.95599365234375 1001.131286621094 16.58758544921875 C 927.54931640625 6.90802001953125 850.7703247070312 2 772.9268798828125 2 M 772.9269409179688 -6.103515625e-05 C 1197.615478515625 -6.103515625e-05 1541.370849609375 145.613525390625 1541.178466796875 325.6382141113281 C 1540.985717773438 505.93798828125 1195.824951171875 652.4691772460938 770.2401123046875 652.9246215820312 C 769.5906982421875 652.92529296875 768.9006958007812 652.9256591796875 768.2516479492188 652.9256591796875 C 343.563232421875 652.9256591796875 -0.1923828125 507.3122863769531 0.0001220703125 327.28759765625 C 0.19287109375 146.9876098632812 345.3538818359375 0.45660400390625 770.9384765625 0.0009765625 C 771.587890625 0.00030517578125 772.2778930664062 -6.103515625e-05 772.9269409179688 -6.103515625e-05 Z" stroke="none" fill="#ffb217"/>
          </g>
        </g>
        <g transform="matrix(1, 0, 0, 1, 1153.17, -366.2)" filter="url(#路径_765)">
          <g id="路径_765-2" data-name="路径 765" transform="matrix(-0.79, 0.62, -0.62, -0.79, 769.53, 963.18)" fill="none">
            <path d="M771,0c425.617-.465,770.488,145.31,770.291,325.6s-345.387,326.814-771,327.278S-.2,507.566,0,327.28,345.387.466,771,0Z" stroke="none"/>
            <path d="M 773.0323486328125 1.99981689453125 C 772.358154296875 1.99981689453125 771.6805419921875 2.000244140625 771.0057373046875 2.00103759765625 C 718.7757568359375 2.05804443359375 666.5767211914062 4.34381103515625 615.8587646484375 8.7950439453125 C 566.4341430664062 13.13262939453125 517.8175659179688 19.57720947265625 471.3594970703125 27.95001220703125 C 425.752685546875 36.16925048828125 381.76513671875 46.3280029296875 340.6185302734375 58.14422607421875 C 299.8763427734375 69.84423828125 261.5657958984375 83.26983642578125 226.750732421875 98.0482177734375 C 191.95849609375 112.8170166015625 160.3748779296875 129.056640625 132.876708984375 146.3158264160156 C 119.090576171875 154.9688415527344 106.1492919921875 163.9992370605469 94.4129638671875 173.1556396484375 C 82.603515625 182.3692321777344 71.7369384765625 191.9266357421875 62.1151123046875 201.5626220703125 C 52.4158935546875 211.2760314941406 43.752197265625 221.2992248535156 36.3643798828125 231.3536376953125 C 28.9049072265625 241.5054321289062 22.5677490234375 251.9326171875 17.5289306640625 262.3452453613281 C 12.432373046875 272.8768310546875 8.5399169921875 283.650634765625 5.9595947265625 294.3672180175781 C 3.3441162109375 305.2296447753906 2.011962890625 316.3036193847656 1.9998779296875 327.2818298339844 C 1.9879150390625 338.2638244628906 3.2969970703125 349.338623046875 5.890380859375 360.1988220214844 C 8.448974609375 370.9130249023438 12.3203125 381.6812438964844 17.3970947265625 392.204833984375 C 22.41650390625 402.6094360351562 28.7349853515625 413.0254516601562 36.1768798828125 423.1636352539062 C 43.54736328125 433.2046508789062 52.1947021484375 443.2112426757812 61.87890625 452.9060363769531 C 90.6483154296875 481.7068481445312 129.1839599609375 508.5954284667969 176.4151611328125 532.8248291015625 C 223.381591796875 556.91845703125 278.1795654296875 577.9926147460938 339.2869873046875 595.4620361328125 C 401.2801513671875 613.1846313476562 468.8253173828125 626.9210205078125 540.046142578125 636.2892456054688 C 613.63232421875 645.9688110351562 690.4153442382812 650.8766479492188 768.2623291015625 650.8766479492188 C 768.9365234375 650.8766479492188 769.6141357421875 650.876220703125 770.2889404296875 650.8754272460938 C 822.5189208984375 650.8184204101562 874.7179565429688 648.5326538085938 925.4359130859375 644.0814208984375 C 974.8605346679688 639.7438354492188 1023.477111816406 633.2992553710938 1069.935180664062 624.9266357421875 C 1115.5419921875 616.7074584960938 1159.529541015625 606.5486450195312 1200.676147460938 594.732421875 C 1241.418334960938 583.0324096679688 1279.72900390625 569.6066284179688 1314.5439453125 554.8282470703125 C 1349.336181640625 540.0596313476562 1380.919677734375 523.820068359375 1408.41796875 506.5608520507812 C 1422.2041015625 497.9076538085938 1435.145385742188 488.87744140625 1446.881713867188 479.7210388183594 C 1458.691162109375 470.5074462890625 1469.557739257812 460.9498291015625 1479.179565429688 451.3138427734375 C 1488.878784179688 441.6004333496094 1497.54248046875 431.5772399902344 1504.930297851562 421.5228271484375 C 1512.389770507812 411.3710327148438 1518.726928710938 400.9440307617188 1523.765747070312 390.5312194824219 C 1528.8623046875 379.9996337890625 1532.754760742188 369.225830078125 1535.335083007812 358.5092468261719 C 1537.950561523438 347.6470336914062 1539.28271484375 336.5728454589844 1539.294799804688 325.5946350097656 C 1539.306762695312 314.6126403808594 1537.997680664062 303.537841796875 1535.404296875 292.6776428222656 C 1532.845703125 281.9634399414062 1528.97412109375 271.1950378417969 1523.897338867188 260.671630859375 C 1518.8779296875 250.2670288085938 1512.5595703125 239.8510437011719 1505.117797851562 229.7128295898438 C 1497.747192382812 219.6718444824219 1489.099731445312 209.6650390625 1479.41552734375 199.9704284667969 C 1450.646118164062 171.1696472167969 1412.110595703125 144.2810363769531 1364.87939453125 120.0516357421875 C 1317.912963867188 95.9580078125 1263.114990234375 74.88385009765625 1202.007568359375 57.4144287109375 C 1140.014404296875 39.69183349609375 1072.469360351562 25.9554443359375 1001.248352050781 16.58721923828125 C 927.662353515625 6.90765380859375 850.8793334960938 1.99981689453125 773.0323486328125 1.99981689453125 M 773.0324096679688 -6.103515625e-05 C 1197.717041015625 -6.103515625e-05 1541.490966796875 145.5967407226562 1541.294799804688 325.5968322753906 C 1541.097900390625 505.8832397460938 1195.907958984375 652.4108276367188 770.2911376953125 652.8754272460938 C 769.61572265625 652.8761596679688 768.937255859375 652.8765258789062 768.2622680664062 652.8765258789062 C 343.577392578125 652.8765258789062 -0.196533203125 507.2797241210938 -0.0001220703125 327.2796325683594 C 0.19677734375 146.9934387207031 345.38671875 0.4658203125 771.0035400390625 0.00103759765625 C 771.678955078125 0.00030517578125 772.357421875 -6.103515625e-05 773.0324096679688 -6.103515625e-05 Z" stroke="none" fill="#ffb217"/>
          </g>
        </g>
        <g transform="matrix(1, 0, 0, 1, 1153.17, -366.2)" filter="url(#路径_766)">
          <g id="路径_766-2" data-name="路径 766" transform="translate(662.06 906.63) rotate(140)" fill="none">
            <path d="M771.068,0c425.65-.472,770.545,145.286,770.345,325.558S1195.995,652.354,770.345,652.825-.2,507.54,0,327.267,345.419.473,771.068,0Z" stroke="none"/>
            <path d="M 773.1287841796875 2.00006103515625 C 772.45458984375 2.00006103515625 771.7451782226562 2.00042724609375 771.0703735351562 2.001220703125 C 718.83642578125 2.05902099609375 666.6334228515625 4.34564208984375 615.911376953125 8.7972412109375 C 566.4830322265625 13.13525390625 517.8624267578125 19.58026123046875 471.400634765625 27.95306396484375 C 425.7901611328125 36.1722412109375 381.7989501953125 46.3310546875 340.6490478515625 58.14703369140625 C 299.903564453125 69.84686279296875 261.589599609375 83.27203369140625 226.7718505859375 98.050048828125 C 191.9765625 112.8180541992188 160.3902587890625 129.0568237304688 132.8897705078125 146.3154296875 C 119.1021728515625 154.9680480957031 106.1600341796875 163.9978332519531 94.422607421875 173.1538391113281 C 82.612060546875 182.3668518066406 71.744384765625 191.9236450195312 62.121826171875 201.5590515136719 C 52.4217529296875 211.2720336914062 43.7569580078125 221.29443359375 36.36865234375 231.3482360839844 C 28.908447265625 241.4994506835938 22.570556640625 251.9258422851562 17.531005859375 262.3378295898438 C 12.4339599609375 272.86865234375 8.541259765625 283.6416320800781 5.96044921875 294.3574523925781 C 3.3446044921875 305.2188415527344 2.01220703125 316.292236328125 2 327.2694396972656 C 1.98779296875 338.2494506835938 3.29638671875 349.3222351074219 5.8890380859375 360.1804504394531 C 8.447021484375 370.8926391601562 12.3173828125 381.6590270996094 17.3929443359375 392.1804504394531 C 22.4112548828125 402.5830383300781 28.7281494140625 412.9970397949219 36.1685791015625 423.1334228515625 C 43.537353515625 433.1724243164062 52.1829833984375 443.17724609375 61.864990234375 452.8700561523438 C 90.632568359375 481.66943359375 129.167236328125 508.5564575195312 176.3985595703125 532.7840576171875 C 223.365234375 556.8758544921875 278.164794921875 577.9486083984375 339.275390625 595.4166259765625 C 401.271240234375 613.1378173828125 468.82080078125 626.8728637695312 540.0474243164062 636.2404174804688 C 613.6392211914062 645.9190673828125 690.4293823242188 650.826416015625 768.2852172851562 650.826416015625 C 768.9594116210938 650.826416015625 769.6680297851562 650.8260498046875 770.3428344726562 650.8252563476562 C 822.5767822265625 650.7674560546875 874.77978515625 648.4808349609375 925.5018310546875 644.0292358398438 C 974.93017578125 639.6912231445312 1023.550598144531 633.2464599609375 1070.012451171875 624.8736572265625 C 1115.622802734375 616.6542358398438 1159.614013671875 606.4956665039062 1200.764038085938 594.6796264648438 C 1241.509643554688 582.9798583984375 1279.823364257812 569.554443359375 1314.641357421875 554.776611328125 C 1349.436401367188 540.0084228515625 1381.022827148438 523.7696533203125 1408.523193359375 506.51123046875 C 1422.310791015625 497.858642578125 1435.253173828125 488.828857421875 1446.990600585938 479.6728515625 C 1458.801025390625 470.4598388671875 1469.668579101562 460.90283203125 1479.291381835938 451.2674560546875 C 1488.991455078125 441.5546264648438 1497.656005859375 431.5320434570312 1505.044555664062 421.4782409667969 C 1512.504760742188 411.3270263671875 1518.842651367188 400.900634765625 1523.881958007812 390.4888305664062 C 1528.979248046875 379.9578247070312 1532.871948242188 369.1848449707031 1535.452758789062 358.46923828125 C 1538.068603515625 347.6076354980469 1539.401000976562 336.534423828125 1539.413208007812 325.5570373535156 C 1539.425415039062 314.5770263671875 1538.116821289062 303.5040283203125 1535.524169921875 292.6460266113281 C 1532.966186523438 281.933837890625 1529.095825195312 271.1674499511719 1524.020263671875 260.6458435058594 C 1519.001953125 250.2432250976562 1512.68505859375 239.8292236328125 1505.24462890625 229.6928405761719 C 1497.875854492188 219.6538391113281 1489.230224609375 209.6490478515625 1479.547973632812 199.9562377929688 C 1450.780639648438 171.1568298339844 1412.245971679688 144.2700500488281 1365.014770507812 120.042236328125 C 1318.048217773438 95.950439453125 1263.24853515625 74.87786865234375 1202.13818359375 57.40985107421875 C 1140.142333984375 39.68865966796875 1072.593017578125 25.95361328125 1001.366394042969 16.5860595703125 C 927.7747802734375 6.90740966796875 850.984619140625 2.00006103515625 773.1287841796875 2.00006103515625 M 773.1288452148438 0.0001220703125 C 1197.84619140625 0.0001220703125 1541.612426757812 145.5729064941406 1541.413208007812 325.5592346191406 C 1541.21337890625 505.8318481445312 1195.994384765625 652.3538208007812 770.3450317382812 652.8252563476562 C 769.6695556640625 652.8259887695312 768.9602661132812 652.8263549804688 768.2852172851562 652.8263549804688 C 343.56787109375 652.8263549804688 -0.19921875 507.2535400390625 0 327.2672424316406 C 0.1995849609375 146.9948425292969 345.4185791015625 0.47283935546875 771.0681762695312 0.001220703125 C 771.74365234375 0.00048828125 772.4537963867188 0.0001220703125 773.1288452148438 0.0001220703125 Z" stroke="none" fill="#ffb217"/>
          </g>
        </g>
        <g transform="matrix(1, 0, 0, 1, 1153.17, -366.2)" filter="url(#路径_767)">
          <g id="路径_767-2" data-name="路径 767" transform="translate(527.24 875.96) rotate(138)" fill="none">
            <path d="M771.132,0c425.683-.476,770.6,145.266,770.4,325.524S1196.084,652.3,770.4,652.775-.2,507.509,0,327.25,345.449.477,771.132,0Z" stroke="none"/>
            <path d="M 773.2117309570312 1.9998779296875 C 772.537353515625 1.9998779296875 771.8087158203125 2.000244140625 771.1337280273438 2.00103759765625 C 718.895751953125 2.0594482421875 666.6885375976562 4.346435546875 615.9627685546875 8.7982177734375 C 566.5303344726562 13.13665771484375 517.9059448242188 19.5814208984375 471.4405517578125 27.9542236328125 C 425.8265380859375 36.1734619140625 381.831787109375 46.33184814453125 340.6783447265625 58.1474609375 C 299.9295654296875 69.84661865234375 261.612548828125 83.27142333984375 226.791748046875 98.0484619140625 C 191.9937744140625 112.8158569335938 160.40478515625 129.0538330078125 132.9019775390625 146.3112487792969 C 119.1131591796875 154.9632568359375 106.1697998046875 163.9924621582031 94.431396484375 173.1478576660156 C 82.6197509765625 182.3604431152344 71.7513427734375 191.9166564941406 62.127685546875 201.5514526367188 C 52.4267578125 211.2636413574219 43.7613525390625 221.2854614257812 36.3721923828125 231.3386535644531 C 28.911376953125 241.4890441894531 22.572998046875 251.9146423339844 17.532958984375 262.3258361816406 C 12.435302734375 272.8560485839844 8.5419921875 283.6280517578125 5.9609375 294.3430480957031 C 3.344970703125 305.2036437988281 2.0120849609375 316.2760620117188 2 327.25244140625 C 1.98779296875 338.2302551269531 3.2957763671875 349.3010559082031 5.8876953125 360.1570434570312 C 8.4451904296875 370.8670349121094 12.3145751953125 381.6312561035156 17.388916015625 392.150634765625 C 22.4061279296875 402.55126953125 28.7216796875 412.9632568359375 36.160400390625 423.0974426269531 C 43.5277099609375 433.1346435546875 52.1715087890625 443.1376342773438 61.8515625 452.8284301757812 C 90.6177978515625 481.6266479492188 129.15234375 508.512451171875 176.3851318359375 532.739013671875 C 223.3531494140625 556.829833984375 278.155517578125 577.9016723632812 339.2701416015625 595.3688354492188 C 401.2701416015625 613.0890502929688 468.8251953125 626.8234252929688 540.0585327148438 636.1904296875 C 613.6569213867188 645.8684692382812 690.455322265625 650.775634765625 768.3203125 650.775634765625 C 768.9945678710938 650.775634765625 769.72412109375 650.7752685546875 770.399169921875 650.7744750976562 C 822.6373291015625 650.716064453125 874.8443603515625 648.4290771484375 925.5703125 643.9772338867188 C 975.0027465820312 639.6390380859375 1023.626953125 633.1940307617188 1070.092529296875 624.8214721679688 C 1115.70654296875 616.6022338867188 1159.701416015625 606.44384765625 1200.854736328125 594.6282348632812 C 1241.603515625 582.9290771484375 1279.920532226562 569.5042724609375 1314.741333007812 554.7272338867188 C 1349.539306640625 539.9598388671875 1381.128295898438 523.7218627929688 1408.631103515625 506.4644470214844 C 1422.419921875 497.8124389648438 1435.363159179688 488.7832641601562 1447.101684570312 479.6278686523438 C 1458.9130859375 470.4152526855469 1469.78173828125 460.8590698242188 1479.405395507812 451.2242431640625 C 1489.106201171875 441.5120544433594 1497.771728515625 431.490234375 1505.160888671875 421.4370422363281 C 1512.621704101562 411.2866516113281 1518.960083007812 400.8610534667969 1524.000122070312 390.4498596191406 C 1529.097778320312 379.9196472167969 1532.990966796875 369.1476440429688 1535.571899414062 358.4326477050781 C 1538.188110351562 347.5720520019531 1539.52099609375 336.4996337890625 1539.533081054688 325.5232543945312 C 1539.545288085938 314.5454406738281 1538.2373046875 303.4746398925781 1535.645141601562 292.61865234375 C 1533.087890625 281.9086608886719 1529.218383789062 271.1444396972656 1524.143920898438 260.6250610351562 C 1519.126953125 250.2244567871094 1512.811279296875 239.8124389648438 1505.37255859375 229.6782531738281 C 1498.005126953125 219.6412353515625 1489.361328125 209.6382446289062 1479.681396484375 199.9472351074219 C 1450.915161132812 171.1490478515625 1412.380493164062 144.2632446289062 1365.147705078125 120.03662109375 C 1318.179565429688 95.94561767578125 1263.376953125 74.8740234375 1202.262329101562 57.4068603515625 C 1140.26220703125 39.68646240234375 1072.707153320312 25.9520263671875 1001.473754882812 16.58502197265625 C 927.8751220703125 6.90704345703125 851.0767211914062 1.9998779296875 773.2117309570312 1.9998779296875 M 773.2117309570312 -0.0001220703125 C 1197.962158203125 -0.0001220703125 1541.734252929688 145.5531005859375 1541.533081054688 325.5254516601562 C 1541.331298828125 505.7838439941406 1196.084106445312 652.2982177734375 770.4013671875 652.7744750976562 C 769.725830078125 652.7752075195312 768.9954223632812 652.775634765625 768.3203125 652.775634765625 C 343.5699462890625 652.775634765625 -0.2012939453125 507.2225952148438 0 327.250244140625 C 0.2015380859375 146.9918518066406 345.4490966796875 0.47747802734375 771.1315307617188 0.00103759765625 C 771.8070678710938 0.00030517578125 772.53662109375 -0.0001220703125 773.2117309570312 -0.0001220703125 Z" stroke="none" fill="#ffb217"/>
          </g>
        </g>
        <g transform="matrix(1, 0, 0, 1, 1153.17, -366.2)" filter="url(#路径_768)">
          <g id="路径_768-2" data-name="路径 768" transform="matrix(-0.72, 0.69, -0.69, -0.72, 408.44, 836.53)" fill="none">
            <path d="M771.194,0c425.716-.479,770.663,145.25,770.46,325.495S1196.176,652.245,770.46,652.723-.2,507.473,0,327.229,345.478.48,771.194,0Z" stroke="none"/>
            <path d="M 773.2847290039062 1.9998779296875 C 772.6102905273438 1.9998779296875 771.8709106445312 2.00030517578125 771.1959228515625 2.0010986328125 C 718.9536743164062 2.05987548828125 666.7424926757812 4.346923828125 616.0126953125 8.79852294921875 C 566.5762939453125 13.13690185546875 517.9481201171875 19.58148193359375 471.4788818359375 27.95391845703125 C 425.861328125 36.1727294921875 381.8631591796875 46.33050537109375 340.706298828125 58.14532470703125 C 299.954345703125 69.8441162109375 261.63427734375 83.26788330078125 226.8106689453125 98.04412841796875 C 192.0098876953125 112.8104858398438 160.4183349609375 129.0473022460938 132.913330078125 146.3034973144531 C 119.123291015625 154.9551086425781 106.178955078125 163.9834899902344 94.439453125 173.1383056640625 C 82.626953125 182.35009765625 71.7574462890625 191.9057006835938 62.13330078125 201.5399169921875 C 52.4315185546875 211.2513122558594 43.7652587890625 221.2724914550781 36.37548828125 231.32470703125 C 28.9140625 241.4745178222656 22.5750732421875 251.8992919921875 17.5345458984375 262.3096923828125 C 12.4366455078125 272.839111328125 8.5428466796875 283.6102905273438 5.961669921875 294.3243103027344 C 3.3453369140625 305.1841125488281 2.012451171875 316.2557067871094 2.0001220703125 327.2311096191406 C 1.9876708984375 338.2066955566406 3.2955322265625 349.2751159667969 5.886962890625 360.1286926269531 C 8.4437255859375 370.8365173339844 12.312255859375 381.5985107421875 17.3857421875 392.1156921386719 C 22.4017333984375 402.5140991210938 28.7159423828125 412.9241027832031 36.153076171875 423.0563049316406 C 43.5189208984375 433.09130859375 52.160888671875 443.09228515625 61.839111328125 452.7813110351562 C 90.604248046875 481.5789184570312 129.139892578125 508.4642944335938 176.3751220703125 532.6903076171875 C 223.345703125 556.7807006835938 278.152099609375 577.8519287109375 339.2720947265625 595.3187255859375 C 401.2774658203125 613.0386962890625 468.839111328125 626.772705078125 540.080078125 636.1397094726562 C 613.6867065429688 645.8175048828125 690.493896484375 650.7244873046875 768.3682861328125 650.7244873046875 C 769.042724609375 650.7244873046875 769.7828979492188 650.72412109375 770.4578857421875 650.7233276367188 C 822.7001342773438 650.6644897460938 874.9113159179688 648.3775024414062 925.64111328125 643.9259033203125 C 975.0775146484375 639.5875244140625 1023.705688476562 633.1428833007812 1070.174926757812 624.7706909179688 C 1115.79248046875 616.5518798828125 1159.790771484375 606.3939208984375 1200.947509765625 594.5791015625 C 1241.699462890625 582.8804931640625 1280.01953125 569.4567260742188 1314.843139648438 554.6804809570312 C 1349.643920898438 539.9141235351562 1381.235473632812 523.6773071289062 1408.740478515625 506.4211120605469 C 1422.530517578125 497.7695007324219 1435.474853515625 488.7409057617188 1447.21435546875 479.5861206054688 C 1459.02685546875 470.37451171875 1469.896240234375 460.8187255859375 1479.5205078125 451.1846923828125 C 1489.222290039062 441.4732971191406 1497.888549804688 431.4520874023438 1505.2783203125 421.39990234375 C 1512.73974609375 411.2501220703125 1519.078735351562 400.8253173828125 1524.119262695312 390.4149169921875 C 1529.217163085938 379.885498046875 1533.110961914062 369.1143188476562 1535.692138671875 358.4002990722656 C 1538.308471679688 347.5404968261719 1539.641357421875 336.4689025878906 1539.653686523438 325.4934997558594 C 1539.666137695312 314.5179138183594 1538.358276367188 303.4494934082031 1535.766845703125 292.5959167480469 C 1533.210083007812 281.8880920410156 1529.341552734375 271.1260986328125 1524.26806640625 260.6089172363281 C 1519.252319335938 250.2105102539062 1512.937866210938 239.8006896972656 1505.500732421875 229.6685180664062 C 1498.134887695312 219.63330078125 1489.492919921875 209.6325073242188 1479.814697265625 199.9432983398438 C 1451.049560546875 171.1456909179688 1412.513916015625 144.260498046875 1365.278564453125 120.0343017578125 C 1318.307861328125 95.94390869140625 1263.501342773438 74.8726806640625 1202.38134765625 57.40570068359375 C 1140.3759765625 39.6859130859375 1072.814086914062 25.95172119140625 1001.572875976562 16.58489990234375 C 927.9664916992188 6.90692138671875 851.1593017578125 1.9998779296875 773.2847290039062 1.9998779296875 M 773.28466796875 -6.103515625e-05 C 1198.068481445312 -6.103515625e-05 1541.85595703125 145.5375366210938 1541.653686523438 325.4956970214844 C 1541.451049804688 505.7398986816406 1196.175903320312 652.2446899414062 770.4600830078125 652.7233276367188 C 769.7845458984375 652.7240600585938 769.0433959960938 652.7244873046875 768.3682250976562 652.7244873046875 C 343.58447265625 652.7244873046875 -0.2021484375 507.1870727539062 0.0001220703125 327.2289123535156 C 0.2027587890625 146.9847106933594 345.4779052734375 0.47967529296875 771.1937255859375 0.0010986328125 C 771.8692626953125 0.0003662109375 772.6094970703125 -6.103515625e-05 773.28466796875 -6.103515625e-05 Z" stroke="none" fill="#ffb217"/>
          </g>
        </g>
      </g>
    </g>
  </g>
</svg>
