<svg xmlns="http://www.w3.org/2000/svg" width="418.683" height="37.076" viewBox="0 0 418.683 37.076">
  <path id="路径_785" data-name="路径 785" d="M17.11-24.051H31.844V-36.9h6.518v32.68H31.844V-18.268H17.11V-4.223H10.639V-36.9H17.11Zm50.3-13.127h6.518v19.461a23.85,23.85,0,0,1-.367,3.351A13.1,13.1,0,0,1,71.815-9.8a12.75,12.75,0,0,1-4.131,4.108,14.332,14.332,0,0,1-7.619,1.744,14.332,14.332,0,0,1-7.619-1.744A12.989,12.989,0,0,1,48.292-9.8a12.87,12.87,0,0,1-1.767-4.567,23.85,23.85,0,0,1-.367-3.351V-37.178h6.518v17.9a23.591,23.591,0,0,0,.9,5.806q.9,3.419,6.495,3.419t6.472-3.419a24.167,24.167,0,0,0,.872-5.806Zm11.825.6h26.3v5.737H95.665v26.3H89.1v-26.3H79.234Zm30.434,16.019a17.818,17.818,0,0,1,2.2-9,15.655,15.655,0,0,1,2.616-3.351,15.576,15.576,0,0,1,3.351-2.479l.092-.046a18.115,18.115,0,0,1,8.537-2.02,18.213,18.213,0,0,1,8.583,2.02,14.388,14.388,0,0,1,3.442,2.5,16,16,0,0,1,2.57,3.282l.046.092a17.53,17.53,0,0,1,2.249,9,17.53,17.53,0,0,1-2.249,9,15.655,15.655,0,0,1-2.616,3.351,15.577,15.577,0,0,1-3.351,2.479l-.092.046a18.213,18.213,0,0,1-8.583,2.02,18.115,18.115,0,0,1-8.537-2.02,14.388,14.388,0,0,1-3.442-2.5,16,16,0,0,1-2.57-3.282l-.046-.092A17.818,17.818,0,0,1,109.667-20.562Zm6.15,0a14.13,14.13,0,0,0,.413,2.938A10.548,10.548,0,0,0,117.745-14,9.872,9.872,0,0,0,121-10.924a9.955,9.955,0,0,0,5.462,1.331,10.051,10.051,0,0,0,5.508-1.331A9.872,9.872,0,0,0,135.233-14a11.324,11.324,0,0,0,1.561-3.626,14.13,14.13,0,0,0,.413-2.937,14.234,14.234,0,0,0-.413-2.983,10.554,10.554,0,0,0-1.492-3.6,10.165,10.165,0,0,0-3.236-3.1,10.684,10.684,0,0,0-5.6-1.285,10.583,10.583,0,0,0-5.554,1.285,10.575,10.575,0,0,0-3.213,3.1,10.323,10.323,0,0,0-1.515,3.6A15.915,15.915,0,0,0,115.818-20.562ZM155.136-36.9l16.478,20.2V-36.9h6.655v32.68h-5.554L156.192-24.6V-4.223h-6.563V-36.9Zm58.412,16.661V-8.4a12.346,12.346,0,0,1-1.928,2.41,9.655,9.655,0,0,1-2.937,1.9,16.752,16.752,0,0,1-4.108,1.17,27.529,27.529,0,0,1-4.475.39,17.908,17.908,0,0,1-9.088-2.295,16.876,16.876,0,0,1-3.488-2.754,15.129,15.129,0,0,1-2.57-3.534l-.046-.092a19.513,19.513,0,0,1-2.2-9.409,19.19,19.19,0,0,1,2.249-9.409,16.049,16.049,0,0,1,2.662-3.6,16.067,16.067,0,0,1,3.488-2.685l.092-.046a17.4,17.4,0,0,1,8.767-2.249,21.791,21.791,0,0,1,4.544.459,12.386,12.386,0,0,1,3.947,1.561,14.568,14.568,0,0,1,3.259,2.754,10.925,10.925,0,0,1,2.065,3.167l-5.691,3.3a8.922,8.922,0,0,0-1.561-2.157,11.023,11.023,0,0,0-2.02-1.7,6.68,6.68,0,0,0-2.2-.849,12.848,12.848,0,0,0-2.57-.252h-.092a8.886,8.886,0,0,0-2.639.39,9.181,9.181,0,0,0-2.318,1.079v-.046a9.729,9.729,0,0,0-3.488,4.131,13.986,13.986,0,0,0-1.285,6.15A14.325,14.325,0,0,0,191.2-14.32a10.222,10.222,0,0,0,1.561,2.364,8.471,8.471,0,0,0,2.111,1.721l.046.046a10.729,10.729,0,0,0,5.6,1.423,10.584,10.584,0,0,0,3.534-.6A7.531,7.531,0,0,0,206.8-10.97v-9.271Zm54.458-17.717a20.34,20.34,0,0,1,9.226,2.065,15.187,15.187,0,0,1,3.695,2.524,15.969,15.969,0,0,1,2.777,3.4l.046.046a17.751,17.751,0,0,1,2.387,9.363,17.843,17.843,0,0,1-2.387,9.409,15.979,15.979,0,0,1-2.777,3.465,15.539,15.539,0,0,1-3.6,2.547h-.092a20.075,20.075,0,0,1-9.271,2.111H256.394V-37.958Zm-.78,29.008a15.107,15.107,0,0,0,5.255-.757,9.855,9.855,0,0,0,3.511-2.272,9,9,0,0,0,2.249-3.626,15.361,15.361,0,0,0,.734-4.957q0-5.462-2.983-8.491a9.95,9.95,0,0,0-3.465-2.272,15.036,15.036,0,0,0-5.3-.757h-3.764V-8.95Zm46.1-8.95h-14.6v8.308h16.845V-3.81H291.614V-37.178h23.454v5.737h-16.34v7.849h14.6Zm7.238,9.547,3.81-4.773a13.707,13.707,0,0,0,4.154,2.433,12.438,12.438,0,0,0,4.383.918,6.61,6.61,0,0,0,3.58-.9,2.732,2.732,0,0,0,1.423-2.41,2.919,2.919,0,0,0-1.721-2.616,38.028,38.028,0,0,0-3.787-1.836l-4.039-1.79a16.359,16.359,0,0,1-4.59-2.777q-2.065-1.767-2.157-5.99a7.786,7.786,0,0,1,.918-3.764,8.586,8.586,0,0,1,2.479-2.983,12.061,12.061,0,0,1,3.81-1.928,15.642,15.642,0,0,1,4.773-.688,18.094,18.094,0,0,1,5.623.918,12.612,12.612,0,0,1,4.98,3.029l-3.259,4.59a12,12,0,0,0-3.4-1.79,13.037,13.037,0,0,0-3.947-.688,7.891,7.891,0,0,0-3.3.688,2.357,2.357,0,0,0-1.515,2.295,2.674,2.674,0,0,0,1.859,2.456q1.859.849,4.016,1.675l4.085,1.652a10.836,10.836,0,0,1,4.613,3.259,8.646,8.646,0,0,1,1.629,5.508,9.607,9.607,0,0,1-2.318,6.288,11.077,11.077,0,0,1-6.816,3.626,13.587,13.587,0,0,1-1.469.207q-.78.069-1.606.069h-.046a18.664,18.664,0,0,1-6.426-1.17A16.832,16.832,0,0,1,320.562-8.354Zm34.361,4.131h-6.518V-36.9h6.518ZM405.188-36.9l16.478,20.2V-36.9h6.655v32.68h-5.554L406.244-24.6V-4.223h-6.563V-36.9ZM392.6-20.241V-8.4a12.345,12.345,0,0,1-1.928,2.41,9.655,9.655,0,0,1-2.937,1.9,16.752,16.752,0,0,1-4.108,1.17,27.529,27.529,0,0,1-4.475.39,17.908,17.908,0,0,1-9.088-2.295,16.876,16.876,0,0,1-3.488-2.754,15.129,15.129,0,0,1-2.57-3.534l-.046-.092a19.513,19.513,0,0,1-2.2-9.409,19.19,19.19,0,0,1,2.249-9.409,16.048,16.048,0,0,1,2.662-3.6,16.068,16.068,0,0,1,3.488-2.685l.092-.046a17.394,17.394,0,0,1,8.767-2.249,21.791,21.791,0,0,1,4.544.459,12.386,12.386,0,0,1,3.947,1.561,14.568,14.568,0,0,1,3.259,2.754,10.925,10.925,0,0,1,2.065,3.167l-5.691,3.3a8.921,8.921,0,0,0-1.561-2.157,11.023,11.023,0,0,0-2.02-1.7,6.68,6.68,0,0,0-2.2-.849,12.848,12.848,0,0,0-2.57-.252h-.092a8.886,8.886,0,0,0-2.639.39,9.181,9.181,0,0,0-2.318,1.079v-.046a9.729,9.729,0,0,0-3.488,4.131,13.986,13.986,0,0,0-1.285,6.15,14.325,14.325,0,0,0,1.285,6.288,10.222,10.222,0,0,0,1.561,2.364,8.471,8.471,0,0,0,2.111,1.721l.046.046a10.729,10.729,0,0,0,5.6,1.423,10.584,10.584,0,0,0,3.534-.6,7.531,7.531,0,0,0,2.754-1.606v-9.271Z" transform="translate(-10.139 39.101)" stroke="rgba(0,0,0,0)" stroke-width="1"/>
</svg>
