<svg xmlns="http://www.w3.org/2000/svg" xmlns:xlink="http://www.w3.org/1999/xlink" width="315" height="31.54" viewBox="0 0 315 31.54">
  <defs>
    <linearGradient id="linear-gradient" x1="0.131" y1="0.8" x2="0.863" y2="0.098" gradientUnits="objectBoundingBox">
      <stop offset="0" stop-color="red"/>
      <stop offset="1" stop-color="red" stop-opacity="0.149"/>
    </linearGradient>
  </defs>
  <g id="组_1057" data-name="组 1057" transform="translate(-137 -947.793)">
    <g id="组_3" data-name="组 3" transform="translate(-225 -148)">
      <path id="路径_412" data-name="路径 412" d="M726.955-1250.469c-2.351-.049-8.32-2.31-8.305-9.812v-12.47h6.9v12.47c.052,2.188,1.04,4.337,3.573,4.382s4.275-1.012,4.176-4.382v-12.47h6.9v22.282h-6.9v-1.481c-1.136,1.27-3.4,1.491-5.532,1.491C727.495-1250.46,727.222-1250.463,726.955-1250.469Zm-25.18-8.594v-19.462h6.806v5.774H713.7v5.315h-5.124v8.3c0,2.409,1.147,3.365,2.753,3.365a6.328,6.328,0,0,0,1.988-.421l1.07,4.932a16,16,0,0,1-4.932.8C703.993-1250.46,701.775-1253.939,701.775-1259.063Zm-24.73,4.512,3.9-4.7a11.31,11.31,0,0,0,6.882,2.906c2.523,0,3.709-.956,3.709-2.485,0-1.644-1.568-2.179-4.015-3.212l-3.632-1.529c-2.982-1.185-5.774-3.671-5.774-7.8,0-4.779,4.283-8.6,10.324-8.6a13.239,13.239,0,0,1,9.253,3.747l-3.4,4.282a9.254,9.254,0,0,0-5.85-2.179c-2.1,0-3.365.841-3.365,2.332,0,1.606,1.759,2.217,4.282,3.212l3.556,1.414c3.518,1.415,5.621,3.786,5.621,7.8,0,4.058-2.914,7.7-8.121,8.67a15.056,15.056,0,0,1-2.738.239A15.92,15.92,0,0,1,677.045-1254.551Zm92.449,4.082v-17.491c.081-3.856,1.754-5.326,6.9-5.387v22.878s-1.9.007-3.95.007C771.425-1250.462,770.367-1250.463,769.495-1250.469Zm-26.644-11.6c0-7.717,5.395-11.282,9.971-11.282a9.563,9.563,0,0,1,5,1.082V-1282h6.128v31.531h-6.128v-1.481s-.852,1.446-4.172,1.481H753.6C748.364-1250.469,742.855-1254.374,742.85-1262.065Zm10.859-5.9c-2.15.049-4.578,1.823-4.578,5.9,0,4.227,2.048,6.121,4.578,6.166a7.179,7.179,0,0,0,4.111-1.118v-8.225c-.007-1.948-1.845-2.721-3.918-2.721Zm26.458,5.9c0-7.291,4.969-11.282,11.583-11.282,6.576,0,11.545,3.991,11.545,11.282,0,7.33-4.969,11.6-11.545,11.6C785.137-1250.469,780.168-1254.735,780.168-1262.065Zm6.388,0c0,3.685,1.606,5.624,5.2,5.624,3.55,0,5.183-1.939,5.183-5.624,0-3.646-1.633-5.624-5.183-5.624C788.162-1267.689,786.556-1265.711,786.556-1262.065Zm-17.061-16.525a3.367,3.367,0,0,1,3.455-3.409,3.384,3.384,0,0,1,3.449,3.409,3.5,3.5,0,0,1-3.449,3.364A3.436,3.436,0,0,1,769.495-1278.591Z" transform="translate(-208.884 2377.793)" fill="red"/>
      <g id="组_666" data-name="组 666" transform="translate(362 1097.551)">
        <path id="路径_581" data-name="路径 581" d="M9.454,0c5.221,0,9.454,2.24,9.454,5s-4.233,5-9.454,5S0,7.766,0,5,4.233,0,9.454,0Z" transform="translate(5.044 14.891)" fill="url(#linear-gradient)"/>
        <path id="路径_579" data-name="路径 579" d="M776.335,28.742l-6.827-10.394h-2.576V28.782H760.1V-1h10.443c10.028,0,12.368,5.523,12.368,9.942s-3.773,8.886-6.781,9.407l8.324,10.434Zm-9.4-16.11h3c4.622-.018,5.517-2.519,5.517-3.958q0-3.917-5.517-3.917h-3Zm-38.017,3.8V-1h6.836V17.1c0,4.619,4.144,5.064,6.036,5.064s6.036-.445,6.036-5.064V-1h6.836V16.429c0,10.108-8.306,12.352-12.872,12.352S728.915,26.537,728.915,16.429ZM705.094,27.612a14.9,14.9,0,0,1,0-27.441A14.891,14.891,0,0,1,721.42,24.42a14.906,14.906,0,0,1-16.325,3.191Zm-2.112-13.618a8.01,8.01,0,1,0,8.01-8.01A8.019,8.019,0,0,0,702.983,13.994Z" transform="translate(-696 1)"/>
      </g>
    </g>
    <rect id="矩形_918" data-name="矩形 918" width="73" height="31" transform="translate(379 948)" fill="#ffa200"/>
    <path id="路径_784" data-name="路径 784" d="M.06-14.882h3.46V-.5h8.956V2.588H.06ZM19.714,2.588H16.23v-17.47h3.484Zm8.736-17.47L33.309-2.1l4.736-12.784h3.681L35.1,2.588H31.419l-6.895-17.47ZM56.262-4.724h-7.8V-.283h9V2.809H44.656V-15.029H57.194v3.067H48.459v4.2h7.8Z" transform="translate(386.538 969.61)" fill="#fff" stroke="rgba(0,0,0,0)" stroke-width="1"/>
  </g>
</svg>
