<svg xmlns="http://www.w3.org/2000/svg" width="782.263" height="606.409" viewBox="0 0 782.263 606.409">
  <g id="组_1062" data-name="组 1062" transform="translate(-547.433 -311.418)">
    <path id="路径_795" data-name="路径 795" d="M83.836-115.488h20.246v60.453a74.087,74.087,0,0,1-1.141,10.408A40.684,40.684,0,0,1,97.523-30.44,39.606,39.606,0,0,1,84.691-17.68q-8.7,5.418-23.668,5.418T37.355-17.68a40.35,40.35,0,0,1-12.9-12.761,39.981,39.981,0,0,1-5.489-14.187,74.087,74.087,0,0,1-1.141-10.408v-60.453H38.068v55.605a73.283,73.283,0,0,0,2.78,18.036q2.78,10.622,20.175,10.622t20.1-10.622a75.072,75.072,0,0,0,2.709-18.036Zm54.271.855L189.292-51.9v-62.734h20.674V-13.117H192.714l-51.328-63.3v63.3H121V-114.633ZM244.989-13.117H224.743V-114.633h20.246ZM260.155-114.49h66.156v17.68H280.258V-71h41.205v17.537H280.258v40.492h-20.1Zm136.07,43.914,27.945-45.48h21.814l-40.35,65.441v38.922h-20.1V-50.758l-41.775-65.3h23.811Z" transform="translate(731 678.498)" stroke="rgba(0,0,0,0)" stroke-width="1"/>
    <g id="路径_793" data-name="路径 793" transform="translate(675.678 311.418) rotate(31)" fill="none">
      <path d="M381.5,0C592.2,0,763,55.741,763,124.5S592.2,249,381.5,249,0,193.259,0,124.5,170.8,0,381.5,0Z" stroke="none"/>
      <path d="M 381.5 10 C 159.2780151367188 10 10 69.20433044433594 10 124.5 C 10 179.7956695556641 159.2780151367188 239 381.5 239 C 603.7219848632812 239 753 179.7956695556641 753 124.5 C 753 69.20433044433594 603.7219848632812 10 381.5 10 M 381.5 0 C 592.196533203125 0 763 55.74055480957031 763 124.5 C 763 193.2594451904297 592.196533203125 249 381.5 249 C 170.803466796875 249 0 193.2594451904297 0 124.5 C 0 55.74055480957031 170.803466796875 0 381.5 0 Z" stroke="none" fill="#ffb217"/>
    </g>
    <path id="多边形_47" data-name="多边形 47" d="M47.15,13.649a4,4,0,0,1,7.7,0l6.762,23.975a4,4,0,0,0,2.764,2.764L88.351,47.15a4,4,0,0,1,0,7.7L64.376,61.612a4,4,0,0,0-2.764,2.764L54.85,88.351a4,4,0,0,1-7.7,0L40.388,64.376a4,4,0,0,0-2.764-2.764L13.649,54.85a4,4,0,0,1,0-7.7l23.975-6.762a4,4,0,0,0,2.764-2.764Z" transform="translate(1126 692)" fill="#ffb217"/>
    <path id="路径_796" data-name="路径 796" d="M83.836-115.488h20.246v60.453a74.087,74.087,0,0,1-1.141,10.408A40.684,40.684,0,0,1,97.523-30.44,39.606,39.606,0,0,1,84.691-17.68q-8.7,5.418-23.668,5.418T37.355-17.68a40.35,40.35,0,0,1-12.9-12.761,39.981,39.981,0,0,1-5.489-14.187,74.087,74.087,0,0,1-1.141-10.408v-60.453H38.068v55.605a73.283,73.283,0,0,0,2.78,18.036q2.78,10.622,20.175,10.622t20.1-10.622a75.072,75.072,0,0,0,2.709-18.036Zm54.271.855L189.292-51.9v-62.734h20.674V-13.117H192.714l-51.328-63.3v63.3H121V-114.633ZM244.989-13.117H224.743V-114.633h20.246Z" transform="translate(731.016 678.498)" stroke="rgba(0,0,0,0)" stroke-width="1"/>
  </g>
</svg>
