<svg xmlns="http://www.w3.org/2000/svg" width="848.091" height="537.813" viewBox="0 0 848.091 537.813">
  <g id="组_1061" data-name="组 1061" transform="translate(-538.909 -345.716)">
    <path id="路径_791" data-name="路径 791" d="M6.15-32.306H88.124v17.883H57.366V67.551H36.909V-14.423H6.15ZM107.243,17.622q0-16.023,6.867-28.04a48.794,48.794,0,0,1,8.154-10.443,48.55,48.55,0,0,1,10.443-7.725l.286-.143A56.464,56.464,0,0,1,159.6-35.024a56.768,56.768,0,0,1,26.752,6.295,44.846,44.846,0,0,1,10.73,7.8A49.871,49.871,0,0,1,205.1-10.7l.143.286q7.01,12.017,7.01,28.04t-7.01,28.04a48.568,48.568,0,0,1-18.6,18.169l-.286.143A56.768,56.768,0,0,1,159.6,70.269a56.464,56.464,0,0,1-26.609-6.295,44.846,44.846,0,0,1-10.73-7.8,49.872,49.872,0,0,1-8.011-10.229l-.143-.286Q107.243,33.645,107.243,17.622Zm19.17,0a44.041,44.041,0,0,0,1.288,9.156,32.876,32.876,0,0,0,4.721,11.3,30.769,30.769,0,0,0,10.157,9.585q6.438,4.149,17.024,4.149,10.73,0,17.167-4.149a30.769,30.769,0,0,0,10.157-9.585,35.3,35.3,0,0,0,4.864-11.3,44.042,44.042,0,0,0,1.288-9.156,44.367,44.367,0,0,0-1.288-9.3,32.9,32.9,0,0,0-4.649-11.23,31.683,31.683,0,0,0-10.086-9.657q-6.581-4.006-17.453-4.006-10.73,0-17.31,4.006a32.963,32.963,0,0,0-10.014,9.657,32.175,32.175,0,0,0-4.721,11.23A49.605,49.605,0,0,0,126.413,17.622Zm196.658,1v36.91a38.48,38.48,0,0,1-6.009,7.511,30.1,30.1,0,0,1-9.156,5.937,52.216,52.216,0,0,1-12.8,3.648,85.806,85.806,0,0,1-13.948,1.216,55.816,55.816,0,0,1-28.326-7.153,52.6,52.6,0,0,1-10.873-8.584,47.157,47.157,0,0,1-8.011-11.016l-.143-.286q-6.867-12.732-6.867-29.328t7.01-29.328a49.871,49.871,0,0,1,19.17-19.6l.286-.143a54.217,54.217,0,0,1,27.325-7.01,67.921,67.921,0,0,1,14.163,1.431,38.607,38.607,0,0,1,12.3,4.864,45.407,45.407,0,0,1,10.157,8.584,34.053,34.053,0,0,1,6.438,9.871l-17.74,10.3a27.807,27.807,0,0,0-4.864-6.724,34.357,34.357,0,0,0-6.295-5.293,20.821,20.821,0,0,0-6.867-2.647A40.045,40.045,0,0,0,280.009-19h-.286a27.7,27.7,0,0,0-8.226,1.216,28.617,28.617,0,0,0-7.225,3.362v-.143A30.325,30.325,0,0,0,253.4-1.691a43.593,43.593,0,0,0-4.006,19.17q0,11.3,4.006,19.6a31.862,31.862,0,0,0,4.864,7.368,26.4,26.4,0,0,0,6.581,5.365l.143.143a33.441,33.441,0,0,0,17.453,4.435,32.989,32.989,0,0,0,11.016-1.86,23.473,23.473,0,0,0,8.584-5.007v-28.9Zm98.231,7.3H375.809V51.814h52.5V69.84H353.634V-34.166h73.1v17.883h-50.93V8.18H421.3Zm32.515-58.226h81.974v17.883H505.033V70.668H484.575V-14.423H453.817ZM575.316,6.75h45.923V-33.307h20.315V71.669H621.238V24.775H575.316V71.669H555.144V-33.307h20.172ZM732.558,25.92H687.065V54.931h52.5V72.957H664.891V-34.166h73.1v17.883h-50.93V8.18h45.493ZM847.333,71.669l-24.177-.143L802.841,31.785h-18.6V71.669H764.072V-33.307h38.2A51.386,51.386,0,0,1,823.3-29.3a31.228,31.228,0,0,1,13.877,11.445A30.659,30.659,0,0,1,842.04-.689a29.348,29.348,0,0,1-5.007,17.024,31.247,31.247,0,0,1-14.02,11.3ZM784.243-16.14v30.9h16.6a34.686,34.686,0,0,0,8.441-1,22.551,22.551,0,0,0,6.867-2.861,13.244,13.244,0,0,0,4.506-4.864,14.27,14.27,0,0,0,1.5-6.724q0-8.011-5.865-11.731a23.241,23.241,0,0,0-6.938-2.79,36.959,36.959,0,0,0-8.512-.93Z" transform="translate(533.258 597)" stroke="rgba(0,0,0,0)" stroke-width="1"/>
    <g id="路径_793" data-name="路径 793" transform="translate(539.408 656.056) rotate(-24)" fill="none">
      <path d="M381.5,0C592.2,0,763,55.741,763,124.5S592.2,249,381.5,249,0,193.259,0,124.5,170.8,0,381.5,0Z" stroke="none"/>
      <path d="M 381.5 10 C 159.2780151367188 10 10 69.20433044433594 10 124.5 C 10 179.7956695556641 159.2780151367188 239 381.5 239 C 603.7219848632812 239 753 179.7956695556641 753 124.5 C 753 69.20433044433594 603.7219848632812 10 381.5 10 M 381.5 0 C 592.196533203125 0 763 55.74055480957031 763 124.5 C 763 193.2594451904297 592.196533203125 249 381.5 249 C 170.803466796875 249 0 193.2594451904297 0 124.5 C 0 55.74055480957031 170.803466796875 0 381.5 0 Z" stroke="none" fill="#ffb217"/>
    </g>
    <path id="路径_794" data-name="路径 794" d="M453.817-32.306h81.974v17.883H505.033V70.668H484.575V-14.423H453.817ZM575.316,6.75h45.923V-33.307h20.315V71.669H621.238V24.775H575.316V71.669H555.144V-33.307h20.172ZM732.558,25.92H687.065V54.931h52.5V72.957H664.891V-34.166h73.1v17.883h-50.93V8.18h45.493ZM847.333,71.669l-24.177-.143L802.841,31.785h-18.6V71.669H764.072V-33.307h38.2A51.386,51.386,0,0,1,823.3-29.3a31.228,31.228,0,0,1,13.877,11.445A30.659,30.659,0,0,1,842.04-.689a29.348,29.348,0,0,1-5.007,17.024,31.247,31.247,0,0,1-14.02,11.3ZM784.243-16.14v30.9h16.6a34.686,34.686,0,0,0,8.441-1,22.551,22.551,0,0,0,6.867-2.861,13.244,13.244,0,0,0,4.506-4.864,14.27,14.27,0,0,0,1.5-6.724q0-8.011-5.865-11.731a23.241,23.241,0,0,0-6.938-2.79,36.959,36.959,0,0,0-8.512-.93Z" transform="translate(533.258 597)" stroke="rgba(0,0,0,0)" stroke-width="1"/>
    <path id="多边形_47" data-name="多边形 47" d="M47.15,13.649a4,4,0,0,1,7.7,0l6.762,23.975a4,4,0,0,0,2.764,2.764L88.351,47.15a4,4,0,0,1,0,7.7L64.376,61.612a4,4,0,0,0-2.764,2.764L54.85,88.351a4,4,0,0,1-7.7,0L40.388,64.376a4,4,0,0,0-2.764-2.764L13.649,54.85a4,4,0,0,1,0-7.7l23.975-6.762a4,4,0,0,0,2.764-2.764Z" transform="translate(1285 447)" fill="#ffb217"/>
  </g>
</svg>
