<svg xmlns="http://www.w3.org/2000/svg" xmlns:xlink="http://www.w3.org/1999/xlink" width="1920" height="1080" viewBox="0 0 1920 1080" fill="none"><defs><radialGradient id="linear_0" cx="50%" cy="100%" fx="50%" fy="100%" r="0.9936100000000001" gradientTransform="translate(0.5 1) scale(0.5625 1) rotate(90) scale(1 1.07) translate(-0.5 -1)" ><stop offset="0" stop-color="#FFE5B5" stop-opacity="0.56" /><stop offset="1" stop-color="#FFE5B5" stop-opacity="0.1" /></radialGradient><radialGradient id="linear_1" cx="0%" cy="0%" fx="0%" fy="0%" r="0.5" gradientTransform="translate(0 0) scale(0.5625 1) rotate(90) scale(1 1) translate(0 0)" ><stop offset="0" stop-color="#FFE5B5" stop-opacity="0.09" /><stop offset="1" stop-color="#FFFFFF" stop-opacity="0.01" /></radialGradient><radialGradient id="linear_2" cx="100%" cy="0%" fx="100%" fy="0%" r="1.0088159438173052" gradientTransform="translate(1 0) scale(0.5625 1) rotate(38.851966391200165) scale(1 1.07) translate(-1 0)" ><stop offset="0" stop-color="#FFFFFF" stop-opacity="0.21" /><stop offset="0.3355" stop-color="#FFFFFF" stop-opacity="0.38" /><stop offset="0.6052" stop-color="#FFFFFF" stop-opacity="0.79" /><stop offset="1" stop-color="#FFFFFF" stop-opacity="0.01" /></radialGradient><linearGradient id="linear_3" x1="80.166%" y1="33.674%" x2="100%" y2="0%" gradientUnits="objectBoundingBox"><stop offset="0" stop-color="#FFFFFF" stop-opacity="0" /><stop offset="1" stop-color="#FF8D1A" stop-opacity="0.07800000000000001" /></linearGradient><rect id="path_0" x="0" y="0" width="1920" height="1080" /></defs><g opacity="1" transform="translate(0 0)  rotate(0 960 540)"><rect fill="#FFFFFF" opacity="1" transform="translate(0 0)  rotate(0 960 540)" x="0" y="0" width="1920" height="1080" rx="0" /><rect fill="url(#linear_0)" opacity="1" transform="translate(0 0)  rotate(0 960 540)" x="0" y="0" width="1920" height="1080" rx="0" /><rect fill="url(#linear_1)" opacity="1" transform="translate(0 0)  rotate(0 960 540)" x="0" y="0" width="1920" height="1080" rx="0" /><rect fill="url(#linear_2)" opacity="1" transform="translate(0 0)  rotate(0 960 540)" x="0" y="0" width="1920" height="1080" rx="0" /><rect fill="url(#linear_3)" opacity="1" transform="translate(0 0)  rotate(0 960 540)" x="0" y="0" width="1920" height="1080" rx="0" /><mask id="bg-mask-0" fill="white"><use xlink:href="#path_0"></use></mask><g mask="url(#bg-mask-0)" ></g></g></svg>