<svg xmlns="http://www.w3.org/2000/svg" xmlns:xlink="http://www.w3.org/1999/xlink" width="200" height="19.20266836086404" viewBox="0 0 200 19.20266836086404" fill="none"><path id="文本 1" fill-rule="evenodd" style="fill:#FFB536" transform="translate(0 0)  rotate(0 100 9.60133418043202)" opacity="1" d="M63.49 16.48C62.26 17.76 60.53 18.48 60.53 18.48C58.79 19.2 56.73 19.2 56.73 19.2C54.66 19.2 52.94 18.48 52.94 18.48C51.22 17.76 49.97 16.48 49.97 16.48C48.73 15.2 48.04 13.44 48.04 13.44C47.36 11.67 47.36 9.6 47.36 9.6C47.36 7.53 48.04 5.77 48.04 5.77C48.73 4 49.97 2.72 49.97 2.72C51.22 1.44 52.94 0.72 52.94 0.72C54.66 0 56.73 0 56.73 0C58.79 0 60.53 0.72 60.53 0.72C62.26 1.44 63.49 2.72 63.49 2.72C64.72 4 65.41 5.77 65.41 5.77C66.09 7.53 66.09 9.6 66.09 9.6C66.09 11.67 65.41 13.44 65.41 13.44C64.72 15.2 63.49 16.48 63.49 16.48ZM26.99 11.23C26.99 11.23 26.99 15.9 23.27 15.9C23.27 15.9 19.53 15.9 19.53 11.23L19.53 0.23L16.23 0.23L16.23 12.02C16.23 12.02 16.23 12.55 16.41 13.72C16.41 13.72 16.6 14.86 17.31 16.04C17.31 16.04 18.02 17.23 19.41 18.11C19.41 18.11 20.83 18.99 23.27 18.99C23.27 18.99 25.71 18.99 27.13 18.11C27.13 18.11 28.53 17.23 29.22 16.04C29.22 16.04 29.92 14.86 30.11 13.72C30.11 13.72 30.29 12.55 30.29 12.02L30.29 0.21L26.99 0.23L26.99 11.23ZM143.33 16.06L143.33 18.99L131.19 18.99L131.19 0.23L143.07 0.23L143.07 3.14L134.79 3.14L134.79 8.46L142.63 8.46L142.63 11.34L134.79 11.34L134.79 16.06L143.33 16.06ZM14.04 18.99L10.74 18.99L10.74 10.53L3.28 10.53L3.28 18.99L0 18.99L0 0.28L3.28 0.28L3.28 7.6L10.74 7.6L10.74 0.28L14.04 0.28L14.04 18.99ZM81.79 0.28L81.79 18.88L78.97 18.88L70.6 7.9L70.6 18.88L67.28 18.88L67.28 0.28L70.07 0.28L78.42 11.9L78.42 0.28L81.79 0.28ZM147.78 1.67C147.78 1.67 146.74 2.39 146.1 3.48C146.1 3.48 145.46 4.56 145.46 6.07C145.46 6.07 145.46 7.65 146.3 8.62C146.3 8.62 146.72 9.09 147.21 9.52C147.21 9.52 147.69 9.95 148.3 10.18C148.3 10.18 149.04 10.46 149.79 10.72C149.79 10.72 150.53 10.97 151.27 11.18C151.27 11.18 153.09 11.69 154.09 12.16C154.09 12.16 155.06 12.65 155.06 13.48C155.06 13.48 155.06 13.86 154.95 14.33C154.95 14.33 154.83 14.81 154.51 15.06C154.51 15.06 153.95 15.74 152.81 15.79C152.81 15.79 152.69 15.79 152.65 15.76C152.65 15.76 151.32 15.72 150.07 15.06C150.07 15.06 149.79 14.93 149.43 14.67C149.43 14.67 149.07 14.41 148.74 14.11C148.74 14.11 148.42 13.81 148.15 13.48C148.15 13.48 147.88 13.16 147.76 12.86L144.74 14.41C144.74 14.41 145.16 15.65 145.96 16.51C145.96 16.51 146.76 17.37 147.79 17.91C147.79 17.91 148.81 18.46 150 18.71C150 18.71 151.18 18.97 152.39 18.97C152.39 18.97 153.74 18.97 155.05 18.66C155.05 18.66 156.37 18.34 157.41 17.65C157.41 17.65 158.46 16.95 159.11 15.87C159.11 15.87 159.76 14.79 159.76 13.25C159.76 13.25 159.76 12 159.2 11.14C159.2 11.14 158.64 10.28 157.77 9.69C157.77 9.69 156.9 9.11 155.84 8.75C155.84 8.75 154.79 8.39 153.76 8.11C153.76 8.11 152.88 7.86 152.16 7.67L150.88 7.35C150.88 7.35 149.76 7.07 149.65 5.72C149.65 5.72 149.65 5.37 149.79 5.07C149.79 5.07 149.93 4.77 150.28 4.44C150.28 4.44 150.93 3.79 152.62 3.74C152.62 3.74 153.95 3.74 154.9 4.3C154.9 4.3 155.85 4.86 156.58 5.97L159.57 4.46C159.57 4.46 159.3 3.35 158.57 2.55C158.57 2.55 157.85 1.74 156.9 1.24C156.9 1.24 155.95 0.74 154.84 0.51C154.84 0.51 153.74 0.28 152.69 0.28C152.69 0.28 151.39 0.28 150.1 0.62C150.1 0.62 148.81 0.95 147.78 1.67ZM165.01 0.28L161.38 0.28L161.38 18.95L165.01 18.95L165.01 0.28ZM200 18.88L200 0.28L196.63 0.28L196.63 11.9L188.28 0.28L185.49 0.28L185.49 18.88L188.82 18.88L188.82 7.9L197.19 18.88L200 18.88ZM37.82 3.25L32.83 3.25L32.83 0.35L46.15 0.35L46.15 3.25L41.15 3.25L41.15 18.9L37.82 18.9L37.82 3.25ZM85.23 14.69C84.11 12.62 84.11 9.39 84.11 9.39C84.11 6.81 85.25 4.74 85.25 4.74C85.81 3.72 86.6 2.92 86.6 2.92C87.39 2.12 88.37 1.56 88.37 1.56L88.41 1.53C90.41 0.4 92.85 0.4 92.85 0.4C94.06 0.4 95.16 0.63 95.16 0.63C96.25 0.86 97.15 1.42 97.15 1.42C98.06 1.98 98.82 2.82 98.82 2.82C99.57 3.67 99.87 4.44 99.87 4.44L96.99 6.11C96.71 5.56 96.19 5.01 96.19 5.01C95.67 4.46 95.16 4.14 95.16 4.14C94.67 3.84 94.04 3.71 94.04 3.71C93.41 3.58 92.74 3.58 92.74 3.58L92.69 3.58C91.99 3.58 91.35 3.78 91.35 3.78C90.71 3.98 90.18 4.3 90.18 4.3C89.04 5.02 88.37 6.37 88.37 6.37C87.69 7.72 87.69 9.39 87.69 9.39C87.69 11.81 88.37 13.13 88.37 13.13C88.69 13.79 89.18 14.31 89.18 14.31C89.67 14.83 90.27 15.18 90.27 15.18L90.3 15.2C91.51 15.92 93.13 15.92 93.13 15.92C94.06 15.92 94.95 15.62 94.95 15.62C95.83 15.32 96.6 14.58 96.6 14.58L96.6 9.81L100.01 9.81L100.01 15.88C99.32 16.81 98.75 17.31 98.75 17.31C98.18 17.81 97.29 18.23 97.29 18.23C96.41 18.64 95.2 18.87 95.2 18.87C93.99 19.09 92.92 19.09 92.92 19.09C90.34 19.09 88.32 17.92 88.32 17.92C87.34 17.34 86.54 16.53 86.54 16.53C85.74 15.72 85.25 14.74 85.25 14.74L85.23 14.69ZM169.61 2.92C169.61 2.92 168.82 3.72 168.27 4.74C168.27 4.74 167.13 6.81 167.13 9.39C167.13 9.39 167.13 12.62 168.24 14.69L168.27 14.74C168.27 14.74 168.75 15.72 169.56 16.53C169.56 16.53 170.36 17.34 171.33 17.92C171.33 17.92 173.36 19.09 175.94 19.09C175.94 19.09 177.01 19.09 178.22 18.87C178.22 18.87 179.43 18.64 180.31 18.23C180.31 18.23 181.19 17.81 181.76 17.31C181.76 17.31 182.33 16.81 183.03 15.88L183.03 9.81L179.61 9.81L179.61 14.58C179.61 14.58 178.84 15.32 177.96 15.62C177.96 15.62 177.08 15.92 176.15 15.92C176.15 15.92 174.52 15.92 173.31 15.2L173.29 15.18C173.29 15.18 172.68 14.83 172.2 14.31C172.2 14.31 171.71 13.79 171.38 13.13C171.38 13.13 170.71 11.81 170.71 9.39C170.71 9.39 170.71 7.72 171.38 6.37C171.38 6.37 172.06 5.02 173.19 4.3C173.19 4.3 173.73 3.98 174.37 3.78C174.37 3.78 175.01 3.58 175.71 3.58L175.75 3.58C175.75 3.58 176.43 3.58 177.05 3.71C177.05 3.71 177.68 3.84 178.17 4.14C178.17 4.14 178.68 4.46 179.2 5.01C179.2 5.01 179.73 5.56 180.01 6.11L182.89 4.44C182.89 4.44 182.59 3.67 181.83 2.82C181.83 2.82 181.08 1.98 180.17 1.42C180.17 1.42 179.26 0.86 178.17 0.63C178.17 0.63 177.08 0.4 175.87 0.4C175.87 0.4 173.43 0.4 171.43 1.53L171.38 1.56C171.38 1.56 170.4 2.12 169.61 2.92ZM120.22 0.44L114.33 0.44L114.33 19.06L120.22 19.06C120.22 19.06 122.82 19.06 124.39 18.31C124.39 18.31 125.96 17.55 126.75 16.82C126.75 16.82 127.54 16.09 128.44 14.73C128.44 14.73 129.33 13.37 129.33 9.74C129.33 9.74 129.33 7.14 128.46 5.3C128.46 5.3 127.59 3.46 126.76 2.7C126.76 2.7 125.94 1.93 124.89 1.49C124.89 1.49 122.7 0.44 120.22 0.44ZM124.74 5.66C124.74 5.66 125.84 7.25 125.84 9.67C125.84 9.67 125.84 12.25 125.44 13.02C125.44 13.02 125.03 13.79 124.26 14.54C124.26 14.54 123.49 15.3 122.48 15.68C122.48 15.68 121.47 16.06 119.82 16.06L117.92 16.06L117.92 3.42L119.82 3.42C119.82 3.42 121.52 3.42 122.58 3.74C122.58 3.74 123.63 4.07 124.74 5.66ZM52.56 5.29C51.77 6.11 51.34 7.24 51.34 7.24C50.91 8.37 50.91 9.67 50.91 9.67C50.91 11 51.34 12.12 51.34 12.12C51.77 13.25 52.56 14.08 52.56 14.08C53.35 14.9 54.44 15.37 54.44 15.37C55.52 15.83 56.84 15.83 56.84 15.83C58.14 15.83 59.24 15.37 59.24 15.37C60.33 14.9 61.11 14.08 61.11 14.08C61.89 13.25 62.32 12.12 62.32 12.12C62.75 11 62.75 9.67 62.75 9.67C62.75 8.37 62.32 7.24 62.32 7.24C61.89 6.11 61.11 5.29 61.11 5.29C60.33 4.46 59.24 4 59.24 4C58.14 3.53 56.84 3.53 56.84 3.53C55.52 3.53 54.44 4 54.44 4C53.35 4.46 52.56 5.29 52.56 5.29Z" /></svg>