<svg xmlns="http://www.w3.org/2000/svg" xmlns:xlink="http://www.w3.org/1999/xlink" width="756.6609806332704" height="756.6609806332704" viewBox="0 0 756.6609806332704 756.6609806332704" fill="none"><defs><rect id="path_0" x="0" y="0" width="756.6609806332704" height="756.6609806332704" /><radialGradient id="linear_0" cx="0%" cy="17.698%" fx="0%" fy="17.698%" r="1.2951300785635396" gradientTransform="translate(0 0.17698) scale(1.3820672842172474 1) rotate(48.679848268250055) scale(1 1) translate(0 -0.17698)" ><stop offset="0" stop-color="#FFDBB0" stop-opacity="1" /><stop offset="1" stop-color="#FFEDED" stop-opacity="1" /></radialGradient></defs><g opacity="1" transform="translate(0 0)  rotate(0 378.3304903166352 378.3304903166352)"><mask id="bg-mask-0" fill="white"><use xlink:href="#path_0"></use></mask><g mask="url(#bg-mask-0)" ><path id="减去顶层" fill-rule="evenodd" fill="url(#linear_0)" transform="translate(170.56528583826184 91.1849984083687)  rotate(0 207.76520447837333 287.14549190826654)" opacity="1" d="M158.765 508.873L27.07 468.356C11 463.406 0 448.536 0 431.696L0 116.566C0 98.6962 12.31 83.1962 29.73 79.1662L368.54 0.986157C379.92 -1.64384 391.91 1.04616 401.05 8.33616C410.19 15.6262 415.53 26.6462 415.53 38.3462L415.53 146.063L329.447 125.866C318.037 123.176 306.057 125.866 296.877 133.156C287.707 140.406 282.337 151.496 282.337 163.196L282.337 198.145L205.875 180.204C194.465 177.514 182.485 180.204 173.305 187.494C164.135 194.744 158.765 205.834 158.765 217.534L158.765 508.873Z M282.337 546.891L177.945 514.774L177.945 217.534C177.945 216.094 178.105 214.654 178.435 213.244C178.755 211.844 179.235 210.504 179.855 209.204C180.485 207.904 181.245 206.704 182.145 205.574C183.055 204.444 184.085 203.424 185.235 202.504C186.375 201.604 187.605 200.834 188.915 200.214C190.205 199.604 191.545 199.134 192.945 198.824C194.345 198.514 195.755 198.354 197.185 198.364C198.635 198.364 200.075 198.544 201.495 198.874L282.337 217.842L282.337 546.891Z M415.53 249.093L415.53 535.926C415.53 548.106 409.74 559.546 399.96 566.776C390.18 574.026 377.53 576.176 365.89 572.596L301.517 552.791L301.517 222.342L415.53 249.093Z M415.53 165.761L415.53 229.396L301.517 202.645L301.517 163.196C301.517 161.756 301.677 160.316 302.007 158.906C302.327 157.506 302.807 156.166 303.427 154.866C304.057 153.566 304.817 152.366 305.717 151.236C306.627 150.106 307.657 149.086 308.807 148.166C309.947 147.266 311.177 146.496 312.487 145.876C313.777 145.266 315.117 144.796 316.517 144.486C317.917 144.176 319.327 144.016 320.757 144.026C322.207 144.026 323.647 144.206 325.067 144.536L415.53 165.761Z " /></g></g></svg>