<svg xmlns="http://www.w3.org/2000/svg" xmlns:xlink="http://www.w3.org/1999/xlink" width="893" height="98.00000000000004" viewBox="0 0 893 98.00000000000004" fill="none"><path id="文本 1" fill-rule="evenodd" style="fill:#000000" transform="translate(0 0)  rotate(0 446.5 49.00000000000002)" opacity="1" d="M428.92 2.45C431.33 0 435.46 0 435.46 0C439.67 0 442.12 2.45 442.12 2.45C444.57 4.91 444.57 9.04 444.57 9.04C444.57 13.18 442.12 15.63 442.12 15.63C439.67 18.08 435.46 18.08 435.46 18.08C431.33 18.08 428.92 15.63 428.92 15.63C426.51 13.18 426.51 9.04 426.51 9.04C426.51 4.91 428.92 2.45 428.92 2.45ZM761.87 9.04C761.87 4.91 764.28 2.45 764.28 2.45C766.68 0 770.81 0 770.81 0C775.02 0 777.47 2.45 777.47 2.45C779.93 4.91 779.93 9.04 779.93 9.04C779.93 13.18 777.47 15.63 777.47 15.63C775.02 18.08 770.81 18.08 770.81 18.08C766.68 18.08 764.28 15.63 764.28 15.63C761.87 13.18 761.87 9.04 761.87 9.04ZM27.52 76.47C17.8 76.47 10.62 71.65 10.62 71.65C3.44 66.83 0 58.9 0 58.9L13.84 52.44C15.56 57.09 19.22 59.51 19.22 59.51C22.87 61.92 27.6 61.92 27.6 61.92C32.5 61.92 35.38 60.15 35.38 60.15C38.26 58.39 38.26 55.54 38.26 55.54C38.26 53.56 37.23 52.27 37.23 52.27C36.2 50.98 33.54 49.82 33.54 49.82C30.87 48.66 25.62 47.19 25.62 47.19C18.66 45.21 14.06 43.23 14.06 43.23C9.46 41.25 5.93 36.99 5.93 36.99C2.41 32.72 2.41 25.75 2.41 25.75C2.41 19.55 5.89 14.68 5.89 14.68C9.37 9.82 15.35 7.06 15.35 7.06C21.33 4.31 28.55 4.31 28.55 4.31C46.95 4.31 54.95 21.27 54.95 21.27L41.19 27.73C38.95 22.99 35.86 20.93 35.86 20.93C32.76 18.86 28.38 18.86 28.38 18.86C24.25 18.86 21.5 20.62 21.5 20.62C18.75 22.39 18.75 24.97 18.75 24.97C18.75 27.04 19.82 28.38 19.82 28.38C20.9 29.71 23.52 30.83 23.52 30.83C26.14 31.95 31.47 33.41 31.47 33.41C38.26 35.22 42.91 37.2 42.91 37.2C47.55 39.18 51.08 43.4 51.08 43.4C54.6 47.62 54.6 54.68 54.6 54.68C54.6 61.23 51.16 66.18 51.16 66.18C47.72 71.13 41.58 73.8 41.58 73.8C35.43 76.47 27.52 76.47 27.52 76.47ZM645.35 58.95C645.35 58.95 649.74 51.07 649.74 40.39C649.74 40.39 649.74 29.71 645.53 21.83C645.53 21.83 641.31 13.95 633.31 9.73C633.31 9.73 625.32 5.51 614.14 5.51L589.29 5.51L589.29 75.27L612.68 75.27C612.68 75.27 624.29 75.27 632.63 71.05C632.63 71.05 640.97 66.83 645.35 58.95ZM196.61 75.01C191.62 76.47 186.55 76.47 186.55 76.47C178.03 76.47 173.48 71.78 173.48 71.78C168.92 67.08 168.92 58.3 168.92 58.3L168.92 8.78L184.4 8.78L184.4 23.17L197.64 23.17L197.64 37.8L184.4 37.8L184.4 55.89C184.4 58.47 185.95 59.89 185.95 59.89C187.49 61.31 190.33 61.31 190.33 61.31C193.43 61.31 196.61 60.37 196.61 60.37L196.61 75.01ZM406.91 55.89L406.91 37.8L420.15 37.8L420.15 23.17L406.91 23.17L406.91 8.78L391.43 8.78L391.43 58.3C391.43 58.3 391.43 67.08 395.99 71.78C395.99 71.78 400.54 76.47 409.06 76.47C409.06 76.47 414.13 76.47 419.12 75.01L419.12 60.37C419.12 60.37 415.94 61.31 412.84 61.31C412.84 61.31 410 61.31 408.45 59.89C408.45 59.89 406.91 58.47 406.91 55.89ZM612.76 60.28L605.28 60.28L605.28 20.5L613.45 20.5C613.45 20.5 623 20.5 628.2 25.79C628.2 25.79 633.4 31.09 633.4 40.39C633.4 40.39 633.4 49.69 627.98 54.99C627.98 54.99 622.57 60.28 612.76 60.28ZM151.43 74.32C151.43 74.32 156.33 72.17 159.12 68.38C159.12 68.38 161.92 64.59 161.92 59.76C161.92 59.76 161.92 47.36 143.86 43.32C143.86 43.32 138.53 42.2 136.59 41.08C136.59 41.08 134.66 39.96 134.66 38.15C134.66 38.15 134.66 36.51 136.03 35.52C136.03 35.52 137.41 34.53 140.08 34.53C140.08 34.53 142.65 34.53 145.11 36.38C145.11 36.38 147.56 38.24 149.02 41.42L161.74 36.17C161.74 36.17 159.34 29.62 153.4 25.79C153.4 25.79 147.47 21.96 139.82 21.96C139.82 21.96 133.54 21.96 128.81 23.98C128.81 23.98 124.08 26.01 121.46 29.71C121.46 29.71 118.84 33.41 118.84 38.41C118.84 38.41 118.84 45.12 124.08 49.22C124.08 49.22 129.33 53.31 138.7 55.46C138.7 55.46 142.4 56.23 144.25 57.4C144.25 57.4 146.09 58.56 146.09 60.28C146.09 60.28 146.09 62 144.63 62.95C144.63 62.95 143.17 63.9 140.25 63.9C140.25 63.9 137.07 63.9 134.57 62.05C134.57 62.05 132.08 60.2 130.87 56.92L118.06 62.26C118.06 62.26 120.3 68.81 126.27 72.64C126.27 72.64 132.25 76.47 140.51 76.47C140.51 76.47 146.52 76.47 151.43 74.32ZM242.27 72.77C242.27 72.77 248.03 69.07 250.61 62.35L237.88 57.09C237.88 57.09 236.51 60.2 234.1 62.05C234.1 62.05 231.69 63.9 228.6 63.9C228.6 63.9 220.25 63.9 218.62 55.29L250.78 55.29C250.78 55.29 251.98 50.98 251.98 45.56C251.98 45.56 251.98 38.41 249.02 33.07C249.02 33.07 246.05 27.73 240.59 24.84C240.59 24.84 235.13 21.96 227.91 21.96C227.91 21.96 220.17 21.96 214.36 25.36C214.36 25.36 208.56 28.76 205.42 35.05C205.42 35.05 202.28 41.34 202.28 49.78C202.28 49.78 202.28 57.87 205.51 63.9C205.51 63.9 208.73 69.93 214.67 73.2C214.67 73.2 220.6 76.47 228.51 76.47C228.51 76.47 236.51 76.47 242.27 72.77ZM288.62 75.27L304.09 75.27L304.09 45.3C304.09 45.3 304.09 40.99 306.03 38.71C306.03 38.71 307.96 36.43 311.57 36.43C311.57 36.43 314.5 36.43 316.09 38.49C316.09 38.49 317.68 40.56 317.68 44.44L317.68 75.27L333.16 75.27L333.16 40.82C333.16 40.82 333.16 31.86 329.07 26.91C329.07 26.91 324.99 21.96 317.77 21.96C317.77 21.96 312.52 21.96 308.74 23.9C308.74 23.9 304.95 25.83 302.2 29.71L301.69 29.71C301.69 29.71 300.14 25.92 297 23.94C297 23.94 293.86 21.96 289.56 21.96C289.56 21.96 284.92 21.96 281.35 23.94C281.35 23.94 277.78 25.92 275.55 29.71L275.03 29.71L275.03 23.17L259.55 23.17L259.55 75.27L275.03 75.27L275.03 45.3C275.03 45.3 275.03 40.99 276.96 38.71C276.96 38.71 278.9 36.43 282.51 36.43C282.51 36.43 285.43 36.43 287.02 38.49C287.02 38.49 288.62 40.56 288.62 44.44L288.62 75.27ZM361.71 34.79C356.37 34.79 352.08 40.13 352.08 40.13L342.01 32.64C350.61 21.96 363.77 21.96 363.77 21.96C370.05 21.96 374.82 24.46 374.82 24.46C379.59 26.95 382.26 31.48 382.26 31.48C384.92 36 384.92 41.85 384.92 41.85L384.92 75.27L369.44 75.27L369.44 69.5L368.93 69.5C367.38 72.94 364.03 74.71 364.03 74.71C360.67 76.47 356.03 76.47 356.03 76.47C349.24 76.47 344.72 72.51 344.72 72.51C340.21 68.55 340.21 61.49 340.21 61.49C340.21 56.15 343.26 52.01 343.26 52.01C346.31 47.88 351.95 45.6 351.95 45.6C357.58 43.32 364.97 43.32 364.97 43.32L369.44 43.32L369.44 42.37C369.44 38.67 367.42 36.73 367.42 36.73C365.4 34.79 361.71 34.79 361.71 34.79ZM500.38 49.78C500.38 49.78 500.38 57.87 503.6 63.9C503.6 63.9 506.83 69.93 512.76 73.2C512.76 73.2 518.69 76.47 526.6 76.47C526.6 76.47 534.6 76.47 540.36 72.77C540.36 72.77 546.12 69.07 548.7 62.35L535.98 57.09C535.98 57.09 534.6 60.2 532.19 62.05C532.19 62.05 529.78 63.9 526.69 63.9C526.69 63.9 518.35 63.9 516.71 55.29L548.87 55.29C548.87 55.29 550.08 50.98 550.08 45.56C550.08 45.56 550.08 38.41 547.11 33.07C547.11 33.07 544.14 27.73 538.68 24.84C538.68 24.84 533.22 21.96 526 21.96C526 21.96 518.26 21.96 512.46 25.36C512.46 25.36 506.65 28.76 503.52 35.05C503.52 35.05 500.38 41.34 500.38 49.78ZM687.92 62.05C690.33 60.2 691.7 57.09 691.7 57.09L704.43 62.35C701.85 69.07 696.09 72.77 696.09 72.77C690.33 76.47 682.33 76.47 682.33 76.47C674.42 76.47 668.48 73.2 668.48 73.2C662.55 69.93 659.33 63.9 659.33 63.9C656.1 57.87 656.1 49.78 656.1 49.78C656.1 41.34 659.24 35.05 659.24 35.05C662.38 28.76 668.18 25.36 668.18 25.36C673.99 21.96 681.73 21.96 681.73 21.96C688.95 21.96 694.41 24.84 694.41 24.84C699.87 27.73 702.84 33.07 702.84 33.07C705.8 38.41 705.8 45.56 705.8 45.56C705.8 50.98 704.6 55.29 704.6 55.29L672.44 55.29C674.07 63.9 682.41 63.9 682.41 63.9C685.51 63.9 687.92 62.05 687.92 62.05ZM711.13 62.26C711.13 62.26 713.37 68.81 719.35 72.64C719.35 72.64 725.32 76.47 733.58 76.47C733.58 76.47 739.6 76.47 744.5 74.32C744.5 74.32 749.4 72.17 752.19 68.38C752.19 68.38 754.99 64.59 754.99 59.76C754.99 59.76 754.99 47.36 736.93 43.32C736.93 43.32 731.6 42.2 729.66 41.08C729.66 41.08 727.73 39.96 727.73 38.15C727.73 38.15 727.73 36.51 729.11 35.52C729.11 35.52 730.48 34.53 733.15 34.53C733.15 34.53 735.73 34.53 738.18 36.38C738.18 36.38 740.63 38.24 742.09 41.42L754.82 36.17C754.82 36.17 752.41 29.62 746.48 25.79C746.48 25.79 740.54 21.96 732.89 21.96C732.89 21.96 726.61 21.96 721.88 23.98C721.88 23.98 717.15 26.01 714.53 29.71C714.53 29.71 711.91 33.41 711.91 38.41C711.91 38.41 711.91 45.12 717.15 49.22C717.15 49.22 722.4 53.31 731.77 55.46C731.77 55.46 735.47 56.23 737.32 57.4C737.32 57.4 739.17 58.56 739.17 60.28C739.17 60.28 739.17 62 737.7 62.95C737.7 62.95 736.24 63.9 733.32 63.9C733.32 63.9 730.14 63.9 727.64 62.05C727.64 62.05 725.15 60.2 723.95 56.92L711.13 62.26ZM821.54 68.38L821.03 68.38C819.14 71.82 815.83 73.72 815.83 73.72C812.51 75.61 808.73 75.61 808.73 75.61C802.2 75.61 797.29 72.29 797.29 72.29C792.39 68.98 789.77 62.82 789.77 62.82C787.15 56.66 787.15 48.31 787.15 48.31C787.15 40.3 789.68 34.36 789.68 34.36C792.22 28.42 796.91 25.19 796.91 25.19C801.59 21.96 807.87 21.96 807.87 21.96C812 21.96 815.44 23.85 815.44 23.85C818.88 25.75 821.03 29.19 821.03 29.19L821.54 29.19L821.54 23.17L837.02 23.17L837.02 72.51C837.02 80.17 834.14 85.94 834.14 85.94C831.26 91.71 825.76 94.86 825.76 94.86C820.25 98 812.6 98 812.6 98C803.66 98 797.29 94.08 797.29 94.08C790.93 90.16 788.35 83.36 788.35 83.36L801.51 77.93C803.06 81.29 805.76 83.19 805.76 83.19C808.47 85.08 812.08 85.08 812.08 85.08C816.47 85.08 819.01 82.33 819.01 82.33C821.54 79.57 821.54 75.01 821.54 75.01L821.54 68.38ZM862.56 29.88C864.8 26.09 868.41 24.03 868.41 24.03C872.02 21.96 876.83 21.96 876.83 21.96C884.57 21.96 888.79 26.95 888.79 26.95C893 31.95 893 41.16 893 41.16L893 75.27L877.52 75.27L877.52 44.78C877.52 40.99 875.67 38.84 875.67 38.84C873.82 36.69 870.56 36.69 870.56 36.69C866.69 36.69 864.41 39.1 864.41 39.1C862.13 41.51 862.13 45.73 862.13 45.73L862.13 75.27L846.65 75.27L846.65 23.17L862.13 23.17L862.13 29.88L862.56 29.88ZM86.76 56.75L75.33 23.17L58.13 23.17L78.68 75.27L69.65 96.79L86.16 96.79L115.14 23.17L97.94 23.17L87.28 56.75L86.76 56.75ZM427.8 23.17L443.28 23.17L443.28 75.27L427.8 75.27L427.8 23.17ZM451.71 23.17L494.44 23.17L494.44 34.19L473.2 60.71L495.56 60.71L495.56 75.27L451.11 75.27L451.11 64.24L472.34 37.72L451.71 37.72L451.71 23.17ZM778.64 23.17L778.64 75.27L763.16 75.27L763.16 23.17L778.64 23.17ZM218.88 42.71L236.25 42.71C236.25 39.01 234.01 36.77 234.01 36.77C231.78 34.53 227.91 34.53 227.91 34.53C220.86 34.53 218.88 42.71 218.88 42.71ZM516.97 42.71L534.34 42.71C534.34 39.01 532.11 36.77 532.11 36.77C529.87 34.53 526 34.53 526 34.53C516.97 34.53 516.97 42.71 516.97 42.71ZM681.73 34.53C681.73 34.53 685.6 34.53 687.83 36.77C687.83 36.77 690.07 39.01 690.07 42.71L672.7 42.71C672.7 42.71 674.68 34.53 681.73 34.53ZM821.89 48.83C821.89 43.14 819.31 39.79 819.31 39.79C816.73 36.43 812.26 36.43 812.26 36.43C808.04 36.43 805.51 39.79 805.51 39.79C802.97 43.14 802.97 48.83 802.97 48.83C802.97 54.51 805.55 57.83 805.55 57.83C808.13 61.14 812.6 61.14 812.6 61.14C816.9 61.14 819.39 57.83 819.39 57.83C821.89 54.51 821.89 48.83 821.89 48.83ZM369.44 55.89L366.52 55.89C361.28 55.89 358.65 56.92 358.65 56.92C356.03 57.96 356.03 60.45 356.03 60.45C356.03 61.92 357.36 62.91 357.36 62.91C358.7 63.9 361.02 63.9 361.02 63.9C364.8 63.9 367.12 62.26 367.12 62.26C369.44 60.63 369.44 57.87 369.44 57.87L369.44 55.89Z" /></svg>